{"glyphs":{"0":{"ha":806,"x_min":0,"x_max":0,"o":"m 403 978 b 57 479 139 978 57 758 b 403 -19 57 201 139 -19 b 749 479 667 -19 749 201 b 403 978 749 758 667 978 z m 403 75 b 190 479 250 75 190 229 b 403 883 190 731 250 883 b 615 479 556 883 615 731 b 403 75 615 229 556 75 z "},"1":{"ha":806,"x_min":0,"x_max":0,"o":"m 564 958 l 488 958 b 383 928 454 958 421 951 l 181 801 l 181 675 l 444 832 l 444 0 l 564 0 z "},"2":{"ha":806,"x_min":0,"x_max":0,"o":"m 257 97 l 497 335 b 731 714 660 494 731 583 b 439 978 731 857 635 978 b 108 672 247 978 128 872 l 107 658 l 226 658 l 228 672 b 425 883 242 807 301 883 b 597 700 540 883 597 799 b 431 422 597 607 543 538 l 83 68 l 83 0 l 726 0 l 726 97 z "},"3":{"ha":806,"x_min":0,"x_max":0,"o":"m 550 510 b 719 735 650 539 719 625 b 432 978 719 879 608 978 b 101 696 238 978 119 869 l 100 682 l 219 682 l 221 696 b 417 883 233 822 315 883 b 586 721 518 883 586 817 b 381 533 586 600 494 533 l 357 533 l 357 436 l 381 436 b 608 260 536 436 608 372 b 406 75 608 143 524 75 b 183 269 289 75 197 135 l 182 283 l 63 283 l 64 269 b 394 -19 85 63 213 -19 b 742 267 579 -19 742 88 b 550 510 742 392 668 476 z "},"4":{"ha":806,"x_min":0,"x_max":0,"o":"m 761 242 l 761 339 l 640 339 l 640 958 l 521 958 l 46 301 l 46 242 l 521 242 l 521 0 l 640 0 l 640 242 z m 521 339 l 197 339 l 442 676 b 521 799 474 721 499 761 z "},"5":{"ha":806,"x_min":0,"x_max":0,"o":"m 426 632 b 275 592 368 632 321 619 l 215 528 l 258 861 l 706 861 l 706 958 l 161 958 l 94 401 l 208 401 b 408 538 256 500 319 538 b 613 303 536 538 613 447 b 403 75 613 158 529 75 b 201 254 283 75 224 144 l 199 268 l 79 268 l 81 254 b 404 -19 99 74 211 -19 b 746 311 582 -19 746 100 b 426 632 746 493 640 632 z "},"6":{"ha":806,"x_min":0,"x_max":0,"o":"m 419 647 b 244 586 350 647 296 629 l 190 500 b 421 883 200 779 292 883 b 597 719 518 883 575 828 l 600 706 l 728 706 l 726 719 b 431 978 711 876 594 978 b 60 433 233 978 60 819 b 399 -19 60 115 185 -19 b 738 322 593 -19 738 118 b 419 647 738 513 619 647 z m 399 75 b 199 311 278 75 199 178 b 399 553 199 471 290 553 b 604 308 544 553 604 442 b 399 75 604 169 518 75 z "},"7":{"ha":806,"x_min":0,"x_max":0,"o":"m 747 958 l 69 958 l 69 861 l 601 861 l 142 0 l 269 0 l 747 903 z "},"8":{"ha":806,"x_min":0,"x_max":0,"o":"m 561 507 b 719 719 650 539 719 614 b 411 978 719 878 599 978 b 103 719 224 978 103 878 b 251 506 103 615 165 539 b 61 268 149 474 61 383 b 403 -21 61 58 221 -21 b 744 268 571 -21 744 58 b 561 507 744 383 664 474 z m 411 883 b 590 715 532 883 590 807 b 410 544 590 618 529 544 b 232 715 290 544 232 618 b 411 883 232 807 290 883 z m 406 74 b 194 263 265 74 194 153 b 404 450 194 361 256 450 b 611 263 553 450 611 361 b 406 74 611 153 546 74 z "},"9":{"ha":806,"x_min":0,"x_max":0,"o":"m 407 978 b 68 636 213 978 68 840 b 386 311 68 446 186 311 b 561 372 456 311 510 329 l 615 458 b 385 75 606 179 514 75 b 208 239 288 75 231 131 l 206 253 l 78 253 l 79 239 b 375 -19 94 82 211 -19 b 746 525 572 -19 746 139 b 407 978 746 843 621 978 z m 407 406 b 201 650 261 406 201 517 b 407 883 201 789 288 883 b 607 647 528 883 607 781 b 407 406 607 488 515 406 z "},"A":{"ha":888,"x_min":0,"x_max":0,"o":"m 633 339 l 747 0 l 876 0 l 546 958 l 385 958 l 40 0 l 168 0 l 281 339 z m 314 436 l 463 864 l 601 436 z "},"Á":{"ha":888,"x_min":0,"x_max":0,"o":"m 497 1022 l 606 1153 l 494 1153 l 419 1022 z m 633 339 l 747 0 l 876 0 l 546 958 l 385 958 l 40 0 l 168 0 l 281 339 z m 314 436 l 463 864 l 601 436 z "},"Ă":{"ha":888,"x_min":0,"x_max":0,"o":"m 465 1003 b 607 1153 564 1003 607 1057 l 533 1153 b 465 1079 532 1103 506 1079 b 397 1153 425 1079 399 1103 l 324 1153 b 465 1003 324 1057 365 1003 z m 633 339 l 747 0 l 876 0 l 546 958 l 385 958 l 40 0 l 168 0 l 281 339 z m 314 436 l 463 864 l 601 436 z "},"Â":{"ha":888,"x_min":0,"x_max":0,"o":"m 424 1022 l 465 1099 l 507 1022 l 600 1022 l 507 1153 l 425 1153 l 332 1022 z m 633 339 l 747 0 l 876 0 l 546 958 l 385 958 l 40 0 l 168 0 l 281 339 z m 314 436 l 463 864 l 601 436 z "},"Ä":{"ha":888,"x_min":0,"x_max":0,"o":"m 368 1024 b 432 1088 403 1024 432 1053 b 368 1151 432 1122 403 1151 b 304 1088 333 1151 304 1122 b 368 1024 304 1053 333 1024 z m 563 1024 b 626 1088 597 1024 626 1053 b 563 1151 626 1122 597 1151 b 499 1088 528 1151 499 1122 b 563 1024 499 1053 528 1024 z m 633 339 l 747 0 l 876 0 l 546 958 l 385 958 l 40 0 l 168 0 l 281 339 z m 314 436 l 463 864 l 601 436 z "},"À":{"ha":888,"x_min":0,"x_max":0,"o":"m 432 1022 l 510 1022 l 435 1153 l 324 1153 z m 633 339 l 747 0 l 876 0 l 546 958 l 385 958 l 40 0 l 168 0 l 281 339 z m 314 436 l 463 864 l 601 436 z "},"Ā":{"ha":888,"x_min":0,"x_max":0,"o":"m 632 1051 l 632 1124 l 299 1124 l 299 1051 z m 633 339 l 747 0 l 876 0 l 546 958 l 385 958 l 40 0 l 168 0 l 281 339 z m 314 436 l 463 864 l 601 436 z "},"Ą":{"ha":888,"x_min":0,"x_max":0,"o":"m 700 -165 b 831 0 700 -78 760 -12 l 876 0 l 546 958 l 385 958 l 40 0 l 168 0 l 281 339 l 633 339 l 742 15 b 586 -192 661 -15 586 -86 b 715 -310 586 -279 639 -310 b 839 -275 761 -310 804 -299 l 839 -207 b 761 -235 814 -226 789 -235 b 700 -165 721 -235 700 -217 z m 314 436 l 463 864 l 601 436 z "},"Å":{"ha":888,"x_min":0,"x_max":0,"o":"m 465 994 b 592 1104 539 994 592 1040 b 465 1214 592 1168 539 1214 b 339 1104 392 1214 339 1168 b 465 994 339 1040 392 994 z m 465 1164 b 522 1104 499 1164 522 1139 b 465 1044 522 1069 499 1044 b 408 1104 432 1044 408 1069 b 465 1164 408 1139 432 1164 z m 633 339 l 747 0 l 876 0 l 546 958 l 385 958 l 40 0 l 168 0 l 281 339 z m 314 436 l 463 864 l 601 436 z "},"Ã":{"ha":888,"x_min":0,"x_max":0,"o":"m 393 1069 b 454 1054 406 1069 421 1065 b 540 1036 492 1042 514 1036 b 613 1135 585 1036 613 1057 l 560 1135 b 538 1107 560 1114 551 1107 b 476 1122 525 1107 510 1111 b 390 1140 439 1135 417 1140 b 318 1042 346 1140 318 1119 l 371 1042 b 393 1069 371 1063 379 1069 z m 633 339 l 747 0 l 876 0 l 546 958 l 385 958 l 40 0 l 168 0 l 281 339 z m 314 436 l 463 864 l 601 436 z "},"Æ":{"ha":1261,"x_min":0,"x_max":0,"o":"m 1222 97 l 732 97 l 713 431 l 1167 431 l 1167 528 l 707 528 l 688 861 l 1208 861 l 1208 958 l 504 958 l -49 0 l 81 0 l 272 339 l 599 339 l 618 0 l 1222 0 z m 592 436 l 326 436 l 568 863 z "},"B":{"ha":871,"x_min":0,"x_max":0,"o":"m 619 510 b 782 719 718 543 782 604 b 546 953 782 856 697 932 b 421 958 500 958 467 958 l 139 958 l 139 0 l 447 0 b 569 7 492 0 522 0 b 817 282 696 26 817 107 b 619 510 817 414 746 481 z m 258 861 l 431 861 b 507 858 453 861 482 861 b 654 710 593 849 654 804 b 519 551 654 625 618 567 b 443 546 492 547 468 546 l 258 546 z m 532 100 b 465 97 514 99 488 97 l 258 97 l 258 449 l 457 449 b 533 443 479 449 501 447 b 689 269 625 431 689 388 b 532 100 689 165 624 108 z "},"C":{"ha":971,"x_min":0,"x_max":0,"o":"m 518 978 b 65 475 246 978 65 767 b 500 -19 65 194 221 -19 b 900 306 753 -19 882 132 l 901 319 l 782 319 l 779 306 b 507 75 751 168 667 75 b 199 481 318 75 199 244 b 515 883 199 713 319 883 b 788 653 675 883 760 790 l 790 639 l 910 639 l 908 653 b 518 978 889 840 761 978 z "},"Ć":{"ha":971,"x_min":0,"x_max":0,"o":"m 540 1022 l 649 1153 l 538 1153 l 463 1022 z m 518 978 b 65 475 246 978 65 767 b 500 -19 65 194 221 -19 b 900 306 753 -19 882 132 l 901 319 l 782 319 l 779 306 b 507 75 751 168 667 75 b 199 481 318 75 199 244 b 515 883 199 713 319 883 b 788 653 675 883 760 790 l 790 639 l 910 639 l 908 653 b 518 978 889 840 761 978 z "},"Č":{"ha":971,"x_min":0,"x_max":0,"o":"m 468 1022 l 550 1022 l 643 1153 l 551 1153 l 510 1076 l 468 1153 l 375 1153 z m 782 319 l 779 306 b 507 75 751 168 667 75 b 199 481 318 75 199 244 b 515 883 199 713 319 883 b 788 653 675 883 760 790 l 790 639 l 910 639 l 908 653 b 518 978 889 840 761 978 b 65 475 246 978 65 767 b 500 -19 65 194 221 -19 b 900 306 753 -19 882 132 l 901 319 z "},"Ç":{"ha":971,"x_min":0,"x_max":0,"o":"m 782 319 l 779 306 b 507 75 751 168 667 75 b 199 481 318 75 199 244 b 515 883 199 713 319 883 b 788 653 675 883 760 790 l 790 639 l 910 639 l 908 653 b 518 978 889 840 761 978 b 65 475 246 978 65 767 b 440 -17 65 215 199 13 l 390 -108 b 524 -172 486 -101 524 -125 b 438 -233 524 -210 494 -233 b 364 -218 408 -233 385 -229 l 364 -279 b 433 -292 383 -287 408 -292 b 604 -171 535 -292 604 -249 b 492 -56 604 -106 565 -65 l 511 -19 b 900 306 757 -15 882 135 l 901 319 z "},"Ċ":{"ha":971,"x_min":0,"x_max":0,"o":"m 508 1151 b 444 1088 474 1151 444 1122 b 508 1024 444 1053 474 1024 b 572 1088 543 1024 572 1053 b 508 1151 572 1122 543 1151 z m 518 978 b 65 475 246 978 65 767 b 500 -19 65 194 221 -19 b 900 306 753 -19 882 132 l 901 319 l 782 319 l 779 306 b 507 75 751 168 667 75 b 199 481 318 75 199 244 b 515 883 199 713 319 883 b 788 653 675 883 760 790 l 790 639 l 910 639 l 908 653 b 518 978 889 840 761 978 z "},"D":{"ha":985,"x_min":0,"x_max":0,"o":"m 553 953 b 431 958 504 958 482 958 l 139 958 l 139 0 l 424 0 b 546 6 475 0 497 0 b 932 490 768 33 932 208 b 553 953 932 776 775 925 z m 533 104 b 417 97 503 99 467 97 l 258 97 l 258 861 l 424 861 b 540 854 474 861 510 860 b 801 490 703 828 801 703 b 533 104 801 264 696 131 z "},"Ð":{"ha":974,"x_min":0,"x_max":0,"o":"m 542 953 b 419 958 493 958 471 958 l 128 958 l 128 501 l 46 501 l 46 424 l 128 424 l 128 0 l 413 0 b 535 6 464 0 486 0 b 921 490 757 33 921 208 b 542 953 921 776 764 925 z m 522 104 b 406 97 492 99 456 97 l 247 97 l 247 424 l 436 424 l 436 501 l 247 501 l 247 861 l 413 861 b 529 854 463 861 499 860 b 790 490 692 828 790 703 b 522 104 790 264 685 131 z "},"Ď":{"ha":985,"x_min":0,"x_max":0,"o":"m 474 1022 l 556 1022 l 649 1153 l 557 1153 l 515 1076 l 474 1153 l 381 1153 z m 553 953 b 431 958 504 958 482 958 l 139 958 l 139 0 l 424 0 b 546 6 475 0 497 0 b 932 490 768 33 932 208 b 553 953 932 776 775 925 z m 533 104 b 417 97 503 99 467 97 l 258 97 l 258 861 l 424 861 b 540 854 474 861 510 860 b 801 490 703 828 801 703 b 533 104 801 264 696 131 z "},"Đ":{"ha":974,"x_min":0,"x_max":0,"o":"m 542 953 b 419 958 493 958 471 958 l 128 958 l 128 501 l 46 501 l 46 424 l 128 424 l 128 0 l 413 0 b 535 6 464 0 486 0 b 921 490 757 33 921 208 b 542 953 921 776 764 925 z m 522 104 b 406 97 492 99 456 97 l 247 97 l 247 424 l 436 424 l 436 501 l 247 501 l 247 861 l 413 861 b 529 854 463 861 499 860 b 790 490 692 828 790 703 b 522 104 790 264 685 131 z "},"E":{"ha":815,"x_min":0,"x_max":0,"o":"m 776 97 l 258 97 l 258 431 l 721 431 l 721 528 l 258 528 l 258 861 l 763 861 l 763 958 l 139 958 l 139 0 l 776 0 z "},"É":{"ha":815,"x_min":0,"x_max":0,"o":"m 499 1022 l 607 1153 l 496 1153 l 421 1022 z m 776 97 l 258 97 l 258 431 l 721 431 l 721 528 l 258 528 l 258 861 l 763 861 l 763 958 l 139 958 l 139 0 l 776 0 z "},"Ě":{"ha":815,"x_min":0,"x_max":0,"o":"m 426 1022 l 508 1022 l 601 1153 l 510 1153 l 468 1076 l 426 1153 l 333 1153 z m 776 97 l 258 97 l 258 431 l 721 431 l 721 528 l 258 528 l 258 861 l 763 861 l 763 958 l 139 958 l 139 0 l 776 0 z "},"Ê":{"ha":815,"x_min":0,"x_max":0,"o":"m 425 1022 l 467 1099 l 508 1022 l 601 1022 l 508 1153 l 426 1153 l 333 1022 z m 776 97 l 258 97 l 258 431 l 721 431 l 721 528 l 258 528 l 258 861 l 763 861 l 763 958 l 139 958 l 139 0 l 776 0 z "},"Ë":{"ha":815,"x_min":0,"x_max":0,"o":"m 369 1024 b 433 1088 404 1024 433 1053 b 369 1151 433 1122 404 1151 b 306 1088 335 1151 306 1122 b 369 1024 306 1053 335 1024 z m 564 1024 b 628 1088 599 1024 628 1053 b 564 1151 628 1122 599 1151 b 500 1088 529 1151 500 1122 b 564 1024 500 1053 529 1024 z m 776 97 l 258 97 l 258 431 l 721 431 l 721 528 l 258 528 l 258 861 l 763 861 l 763 958 l 139 958 l 139 0 l 776 0 z "},"Ė":{"ha":815,"x_min":0,"x_max":0,"o":"m 467 1024 b 531 1088 501 1024 531 1053 b 467 1151 531 1122 501 1151 b 403 1088 432 1151 403 1122 b 467 1024 403 1053 432 1024 z m 776 97 l 258 97 l 258 431 l 721 431 l 721 528 l 258 528 l 258 861 l 763 861 l 763 958 l 139 958 l 139 0 l 776 0 z "},"È":{"ha":815,"x_min":0,"x_max":0,"o":"m 433 1022 l 511 1022 l 436 1153 l 325 1153 z m 776 97 l 258 97 l 258 431 l 721 431 l 721 528 l 258 528 l 258 861 l 763 861 l 763 958 l 139 958 l 139 0 l 776 0 z "},"Ē":{"ha":815,"x_min":0,"x_max":0,"o":"m 633 1051 l 633 1124 l 300 1124 l 300 1051 z m 776 97 l 258 97 l 258 431 l 721 431 l 721 528 l 258 528 l 258 861 l 763 861 l 763 958 l 139 958 l 139 0 l 776 0 z "},"Ę":{"ha":815,"x_min":0,"x_max":0,"o":"m 708 -235 b 647 -165 668 -235 647 -217 b 778 0 647 -78 707 -12 l 776 0 l 776 97 l 258 97 l 258 431 l 721 431 l 721 528 l 258 528 l 258 861 l 763 861 l 763 958 l 139 958 l 139 0 l 657 0 b 533 -192 589 -36 533 -101 b 663 -310 533 -279 586 -310 b 786 -275 708 -310 751 -299 l 786 -207 b 708 -235 761 -226 736 -235 z "},"F":{"ha":788,"x_min":0,"x_max":0,"o":"m 258 861 l 763 861 l 763 958 l 139 958 l 139 0 l 258 0 l 258 431 l 707 431 l 707 528 l 258 528 z "},"G":{"ha":986,"x_min":0,"x_max":0,"o":"m 554 463 l 554 365 l 778 365 b 507 75 778 194 663 75 b 199 481 318 75 199 244 b 515 883 199 713 319 883 b 788 653 675 883 760 790 l 790 639 l 910 639 l 908 653 b 518 978 889 840 761 978 b 65 475 246 978 65 767 b 500 -19 65 194 221 -19 b 749 78 610 -19 694 17 l 792 167 l 792 0 l 897 0 l 897 463 z "},"Ğ":{"ha":986,"x_min":0,"x_max":0,"o":"m 504 1003 b 646 1153 603 1003 646 1057 l 572 1153 b 504 1079 571 1103 544 1079 b 436 1153 464 1079 438 1103 l 363 1153 b 504 1003 363 1057 404 1003 z m 554 463 l 554 365 l 778 365 b 507 75 778 194 663 75 b 199 481 318 75 199 244 b 515 883 199 713 319 883 b 788 653 675 883 760 790 l 790 639 l 910 639 l 908 653 b 518 978 889 840 761 978 b 65 475 246 978 65 767 b 500 -19 65 194 221 -19 b 749 78 610 -19 694 17 l 792 167 l 792 0 l 897 0 l 897 463 z "},"Ģ":{"ha":986,"x_min":0,"x_max":0,"o":"m 554 463 l 554 365 l 778 365 b 507 75 778 194 663 75 b 199 481 318 75 199 244 b 515 883 199 713 319 883 b 788 653 675 883 760 790 l 790 639 l 910 639 l 908 653 b 518 978 889 840 761 978 b 65 475 246 978 65 767 b 500 -19 65 194 221 -19 b 749 78 610 -19 694 17 l 792 167 l 792 0 l 897 0 l 897 463 z m 467 -71 l 394 -271 l 479 -271 l 563 -87 l 563 -71 z "},"Ġ":{"ha":986,"x_min":0,"x_max":0,"o":"m 504 1024 b 568 1088 539 1024 568 1053 b 504 1151 568 1122 539 1151 b 440 1088 469 1151 440 1122 b 504 1024 440 1053 469 1024 z m 554 463 l 554 365 l 778 365 b 507 75 778 194 663 75 b 199 481 318 75 199 244 b 515 883 199 713 319 883 b 788 653 675 883 760 790 l 790 639 l 910 639 l 908 653 b 518 978 889 840 761 978 b 65 475 246 978 65 767 b 500 -19 65 194 221 -19 b 749 78 610 -19 694 17 l 792 167 l 792 0 l 897 0 l 897 463 z "},"H":{"ha":1014,"x_min":0,"x_max":0,"o":"m 906 958 l 786 958 l 786 519 l 258 519 l 258 958 l 139 958 l 139 0 l 258 0 l 258 419 l 786 419 l 786 0 l 906 0 z "},"Ħ":{"ha":1014,"x_min":0,"x_max":0,"o":"m 961 697 l 961 775 l 906 775 l 906 958 l 786 958 l 786 775 l 258 775 l 258 958 l 139 958 l 139 775 l 83 775 l 83 697 l 139 697 l 139 0 l 258 0 l 258 419 l 786 419 l 786 0 l 906 0 l 906 697 z m 786 697 l 786 519 l 258 519 l 258 697 z "},"I":{"ha":367,"x_min":0,"x_max":0,"o":"m 258 0 l 258 958 l 139 958 l 139 0 z "},"Ĳ":{"ha":1122,"x_min":0,"x_max":0,"o":"m 258 0 l 258 958 l 139 958 l 139 0 z m 1044 958 l 925 958 l 925 371 b 924 258 925 321 925 286 b 749 75 915 146 860 75 b 565 269 635 75 572 138 l 563 326 l 443 326 l 444 269 b 732 -19 449 90 554 -19 b 1042 251 935 -19 1032 90 b 1044 367 1044 299 1044 331 z "},"Í":{"ha":367,"x_min":0,"x_max":0,"o":"m 231 1022 l 339 1153 l 228 1153 l 153 1022 z m 258 0 l 258 958 l 139 958 l 139 0 z "},"Î":{"ha":367,"x_min":0,"x_max":0,"o":"m 157 1022 l 199 1099 l 240 1022 l 333 1022 l 240 1153 l 158 1153 l 65 1022 z m 139 958 l 139 0 l 258 0 l 258 958 z "},"Ï":{"ha":367,"x_min":0,"x_max":0,"o":"m 101 1151 b 38 1088 67 1151 38 1122 b 101 1024 38 1053 67 1024 b 165 1088 136 1024 165 1053 b 101 1151 165 1122 136 1151 z m 296 1151 b 232 1088 261 1151 232 1122 b 296 1024 232 1053 261 1024 b 360 1088 331 1024 360 1053 b 296 1151 360 1122 331 1151 z m 258 0 l 258 958 l 139 958 l 139 0 z "},"İ":{"ha":367,"x_min":0,"x_max":0,"o":"m 199 1151 b 135 1088 164 1151 135 1122 b 199 1024 135 1053 164 1024 b 263 1088 233 1024 263 1053 b 199 1151 263 1122 233 1151 z m 258 0 l 258 958 l 139 958 l 139 0 z "},"Ì":{"ha":367,"x_min":0,"x_max":0,"o":"m 243 1022 l 168 1153 l 57 1153 l 165 1022 z m 258 0 l 258 958 l 139 958 l 139 0 z "},"Ī":{"ha":367,"x_min":0,"x_max":0,"o":"m 365 1051 l 365 1124 l 32 1124 l 32 1051 z m 258 0 l 258 958 l 139 958 l 139 0 z "},"Į":{"ha":367,"x_min":0,"x_max":0,"o":"m 258 0 l 258 958 l 139 958 l 139 15 l 138 15 b -19 -192 56 -15 -19 -86 b 110 -310 -19 -279 33 -310 b 233 -275 156 -310 199 -299 l 233 -207 b 156 -235 208 -226 183 -235 b 94 -165 115 -235 94 -217 b 225 0 94 -78 154 -12 z "},"J":{"ha":756,"x_min":0,"x_max":0,"o":"m 678 958 l 558 958 l 558 371 b 557 258 558 321 558 286 b 382 75 549 146 493 75 b 199 269 268 75 206 138 l 196 326 l 76 326 l 78 269 b 365 -19 82 90 188 -19 b 675 251 568 -19 665 90 b 678 367 678 299 678 331 z "},"K":{"ha":846,"x_min":0,"x_max":0,"o":"m 438 490 l 872 958 l 732 958 l 258 449 l 258 958 l 139 958 l 139 0 l 258 0 l 258 311 l 350 410 l 679 0 l 847 0 z "},"Ķ":{"ha":846,"x_min":0,"x_max":0,"o":"m 438 490 l 872 958 l 732 958 l 258 449 l 258 958 l 139 958 l 139 0 l 258 0 l 258 311 l 350 410 l 679 0 l 847 0 z m 429 -71 l 357 -271 l 442 -271 l 525 -87 l 525 -71 z "},"L":{"ha":799,"x_min":0,"x_max":0,"o":"m 776 97 l 258 97 l 258 958 l 139 958 l 139 0 l 776 0 z "},"Ĺ":{"ha":799,"x_min":0,"x_max":0,"o":"m 231 1022 l 339 1153 l 228 1153 l 153 1022 z m 776 97 l 258 97 l 258 958 l 139 958 l 139 0 l 776 0 z "},"Ľ":{"ha":799,"x_min":0,"x_max":0,"o":"m 776 97 l 258 97 l 258 958 l 139 958 l 139 0 l 776 0 z "},"Ļ":{"ha":799,"x_min":0,"x_max":0,"o":"m 776 97 l 258 97 l 258 958 l 139 958 l 139 0 l 776 0 z m 424 -71 l 351 -271 l 436 -271 l 519 -87 l 519 -71 z "},"Ŀ":{"ha":799,"x_min":0,"x_max":0,"o":"m 776 97 l 258 97 l 258 958 l 139 958 l 139 0 l 776 0 z m 544 479 b 621 556 588 479 621 513 b 544 632 621 599 588 632 b 468 556 501 632 468 599 b 544 479 468 513 501 479 z "},"Ł":{"ha":829,"x_min":0,"x_max":0,"o":"m 807 97 l 289 97 l 289 471 l 464 575 l 464 668 l 289 564 l 289 958 l 169 958 l 169 493 l 19 404 l 19 311 l 169 400 l 169 0 l 807 0 z "},"M":{"ha":1203,"x_min":0,"x_max":0,"o":"m 1094 958 l 901 958 l 619 101 l 336 958 l 139 958 l 139 0 l 258 0 l 258 493 b 256 847 258 611 258 743 b 369 497 286 744 331 611 l 542 0 l 692 0 l 861 494 b 978 850 901 611 946 746 b 975 493 975 746 975 613 l 975 0 l 1094 0 z "},"N":{"ha":997,"x_min":0,"x_max":0,"o":"m 889 0 l 886 958 l 769 958 l 769 479 b 774 117 769 367 771 229 l 322 958 l 139 958 l 139 0 l 258 0 l 258 479 b 254 842 258 592 257 729 l 706 0 z "},"Ń":{"ha":997,"x_min":0,"x_max":0,"o":"m 546 1022 l 654 1153 l 543 1153 l 468 1022 z m 889 0 l 886 958 l 769 958 l 769 479 b 774 117 769 367 771 229 l 322 958 l 139 958 l 139 0 l 258 0 l 258 479 b 254 842 258 592 257 729 l 706 0 z "},"Ň":{"ha":997,"x_min":0,"x_max":0,"o":"m 474 1022 l 556 1022 l 649 1153 l 557 1153 l 515 1076 l 474 1153 l 381 1153 z m 706 0 l 889 0 l 886 958 l 769 958 l 769 479 b 774 117 769 367 771 229 l 322 958 l 139 958 l 139 0 l 258 0 l 258 479 b 254 842 258 592 257 729 z "},"Ņ":{"ha":997,"x_min":0,"x_max":0,"o":"m 889 0 l 886 958 l 769 958 l 769 479 b 774 117 769 367 771 229 l 322 958 l 139 958 l 139 0 l 258 0 l 258 479 b 254 842 258 592 257 729 l 706 0 z m 575 -87 l 575 -71 l 479 -71 l 407 -271 l 492 -271 z "},"Ŋ":{"ha":997,"x_min":0,"x_max":0,"o":"m 889 958 l 769 958 l 769 507 b 774 172 769 394 771 285 l 322 958 l 139 958 l 139 0 l 258 0 l 258 479 b 254 831 258 592 257 718 l 768 -43 l 768 -115 b 669 -212 768 -178 744 -212 l 669 -310 b 888 -150 793 -310 875 -272 b 889 -93 889 -131 889 -118 z "},"Ñ":{"ha":997,"x_min":0,"x_max":0,"o":"m 439 1140 b 367 1042 394 1140 367 1119 l 419 1042 b 442 1069 419 1063 428 1069 b 503 1054 454 1069 469 1065 b 589 1036 540 1042 563 1036 b 661 1135 633 1036 661 1057 l 608 1135 b 586 1107 608 1114 600 1107 b 525 1122 574 1107 558 1111 b 439 1140 488 1135 465 1140 z m 889 0 l 886 958 l 769 958 l 769 479 b 774 117 769 367 771 229 l 322 958 l 139 958 l 139 0 l 258 0 l 258 479 b 254 842 258 592 257 729 l 706 0 z "},"O":{"ha":1024,"x_min":0,"x_max":0,"o":"m 518 978 b 65 479 226 978 65 772 b 518 -19 65 188 226 -19 b 971 479 810 -19 971 188 b 518 978 971 772 810 978 z m 518 75 b 199 479 317 75 199 231 b 518 883 199 729 317 883 b 838 479 719 883 838 729 b 518 75 838 231 719 75 z "},"Ó":{"ha":1024,"x_min":0,"x_max":0,"o":"m 550 1022 l 658 1153 l 547 1153 l 472 1022 z m 518 978 b 65 479 226 978 65 772 b 518 -19 65 188 226 -19 b 971 479 810 -19 971 188 b 518 978 971 772 810 978 z m 518 75 b 199 479 317 75 199 231 b 518 883 199 729 317 883 b 838 479 719 883 838 729 b 518 75 838 231 719 75 z "},"Ô":{"ha":1024,"x_min":0,"x_max":0,"o":"m 476 1022 l 518 1099 l 560 1022 l 653 1022 l 560 1153 l 478 1153 l 385 1022 z m 518 978 b 65 479 226 978 65 772 b 518 -19 65 188 226 -19 b 971 479 810 -19 971 188 b 518 978 971 772 810 978 z m 518 75 b 199 479 317 75 199 231 b 518 883 199 729 317 883 b 838 479 719 883 838 729 b 518 75 838 231 719 75 z "},"Ö":{"ha":1024,"x_min":0,"x_max":0,"o":"m 421 1024 b 485 1088 456 1024 485 1053 b 421 1151 485 1122 456 1151 b 357 1088 386 1151 357 1122 b 421 1024 357 1053 386 1024 z m 615 1024 b 679 1088 650 1024 679 1053 b 615 1151 679 1122 650 1151 b 551 1088 581 1151 551 1122 b 615 1024 551 1053 581 1024 z m 518 978 b 65 479 226 978 65 772 b 518 -19 65 188 226 -19 b 971 479 810 -19 971 188 b 518 978 971 772 810 978 z m 518 75 b 199 479 317 75 199 231 b 518 883 199 729 317 883 b 838 479 719 883 838 729 b 518 75 838 231 719 75 z "},"Ò":{"ha":1024,"x_min":0,"x_max":0,"o":"m 485 1022 l 563 1022 l 488 1153 l 376 1153 z m 518 978 b 65 479 226 978 65 772 b 518 -19 65 188 226 -19 b 971 479 810 -19 971 188 b 518 978 971 772 810 978 z m 518 75 b 199 479 317 75 199 231 b 518 883 199 729 317 883 b 838 479 719 883 838 729 b 518 75 838 231 719 75 z "},"Ő":{"ha":1024,"x_min":0,"x_max":0,"o":"m 451 1022 l 560 1153 l 449 1153 l 374 1022 z m 525 1022 l 603 1022 l 711 1153 l 600 1153 z m 518 978 b 65 479 226 978 65 772 b 518 -19 65 188 226 -19 b 971 479 810 -19 971 188 b 518 978 971 772 810 978 z m 518 75 b 199 479 317 75 199 231 b 518 883 199 729 317 883 b 838 479 719 883 838 729 b 518 75 838 231 719 75 z "},"Ō":{"ha":1024,"x_min":0,"x_max":0,"o":"m 685 1051 l 685 1124 l 351 1124 l 351 1051 z m 518 978 b 65 479 226 978 65 772 b 518 -19 65 188 226 -19 b 971 479 810 -19 971 188 b 518 978 971 772 810 978 z m 518 75 b 199 479 317 75 199 231 b 518 883 199 729 317 883 b 838 479 719 883 838 729 b 518 75 838 231 719 75 z "},"Ø":{"ha":1035,"x_min":0,"x_max":0,"o":"m 988 886 l 931 943 l 843 856 b 524 978 767 933 660 978 b 71 479 232 978 71 772 b 154 167 71 357 99 250 l 60 72 l 117 15 l 204 103 b 524 -19 281 25 388 -19 b 976 479 815 -19 976 188 b 894 793 976 601 949 710 z m 204 479 b 524 883 204 729 322 883 b 761 774 625 883 706 844 l 244 257 b 204 479 218 318 204 393 z m 843 479 b 524 75 843 231 725 75 b 288 186 422 75 342 114 l 803 701 b 843 479 829 640 843 565 z "},"Õ":{"ha":1024,"x_min":0,"x_max":0,"o":"m 446 1069 b 507 1054 458 1069 474 1065 b 593 1036 544 1042 567 1036 b 665 1135 638 1036 665 1057 l 613 1135 b 590 1107 613 1114 604 1107 b 529 1122 578 1107 563 1111 b 443 1140 492 1135 469 1140 b 371 1042 399 1140 371 1119 l 424 1042 b 446 1069 424 1063 432 1069 z m 518 978 b 65 479 226 978 65 772 b 518 -19 65 188 226 -19 b 971 479 810 -19 971 188 b 518 978 971 772 810 978 z m 518 75 b 199 479 317 75 199 231 b 518 883 199 729 317 883 b 838 479 719 883 838 729 b 518 75 838 231 719 75 z "},"Œ":{"ha":1514,"x_min":0,"x_max":0,"o":"m 1475 97 l 957 97 l 957 431 l 1419 431 l 1419 528 l 957 528 l 957 861 l 1461 861 l 1461 958 l 838 958 l 838 760 l 800 858 b 504 978 726 944 646 978 b 65 479 226 978 65 758 b 504 -19 65 201 226 -19 b 800 94 628 -19 728 13 l 838 196 l 838 0 l 1475 0 z m 518 75 b 199 479 317 75 199 240 b 518 883 199 719 317 883 b 838 479 719 883 838 719 b 518 75 838 240 719 75 z "},"P":{"ha":831,"x_min":0,"x_max":0,"o":"m 561 953 b 436 958 518 958 485 958 l 139 958 l 139 0 l 258 0 l 258 392 l 436 392 b 561 397 485 392 518 392 b 810 675 700 415 810 513 b 561 953 810 838 714 933 z m 554 499 b 447 492 528 493 490 492 l 258 492 l 258 858 l 447 858 b 554 851 490 858 528 857 b 682 675 622 836 682 786 b 554 499 682 564 622 514 z "},"Þ":{"ha":875,"x_min":0,"x_max":0,"o":"m 568 831 b 443 836 525 836 492 836 l 258 836 l 258 958 l 139 958 l 139 0 l 258 0 l 258 293 l 443 293 b 568 299 492 293 525 293 b 810 567 707 317 810 410 b 568 831 810 724 707 813 z m 550 400 b 443 393 524 394 486 393 l 258 393 l 258 736 l 443 736 b 550 729 486 736 524 735 b 682 564 618 714 682 669 b 550 400 682 458 618 415 z "},"Q":{"ha":1018,"x_min":0,"x_max":0,"o":"m 796 100 b 971 479 910 183 971 318 b 518 978 971 772 810 978 b 65 479 226 978 65 772 b 518 -19 65 188 226 -19 b 617 -10 554 -19 586 -17 b 718 3 656 -1 679 3 b 906 -72 767 3 811 -8 l 974 10 b 796 100 915 58 860 90 z m 199 479 b 518 883 199 729 317 883 b 838 479 719 883 838 729 b 518 75 838 231 719 75 b 199 479 317 75 199 231 z "},"R":{"ha":860,"x_min":0,"x_max":0,"o":"m 769 251 b 646 471 761 347 724 435 b 817 697 735 499 817 571 b 578 953 817 858 717 935 b 453 958 535 958 501 958 l 139 958 l 139 0 l 258 0 l 258 413 l 439 413 b 507 411 461 413 485 413 b 650 240 601 404 639 339 b 701 0 663 122 675 61 l 833 0 b 769 251 794 51 781 126 z m 258 510 l 258 861 l 453 861 b 549 856 496 861 522 860 b 689 686 638 842 689 793 b 535 513 689 578 624 521 b 442 510 508 510 485 510 z "},"Ŕ":{"ha":860,"x_min":0,"x_max":0,"o":"m 479 1022 l 588 1153 l 476 1153 l 401 1022 z m 769 251 b 646 471 761 347 724 435 b 817 697 735 499 817 571 b 578 953 817 858 717 935 b 453 958 535 958 501 958 l 139 958 l 139 0 l 258 0 l 258 413 l 439 413 b 507 411 461 413 485 413 b 650 240 601 404 639 339 b 701 0 663 122 675 61 l 833 0 b 769 251 794 51 781 126 z m 258 510 l 258 861 l 453 861 b 549 856 496 861 522 860 b 689 686 638 842 689 793 b 535 513 689 578 624 521 b 442 510 508 510 485 510 z "},"Ř":{"ha":860,"x_min":0,"x_max":0,"o":"m 407 1022 l 489 1022 l 582 1153 l 490 1153 l 449 1076 l 407 1153 l 314 1153 z m 769 251 b 646 471 761 347 724 435 b 817 697 735 499 817 571 b 578 953 817 858 717 935 b 453 958 535 958 501 958 l 139 958 l 139 0 l 258 0 l 258 413 l 439 413 b 507 411 461 413 485 413 b 650 240 601 404 639 339 b 701 0 663 122 675 61 l 833 0 b 769 251 794 51 781 126 z m 258 510 l 258 861 l 453 861 b 549 856 496 861 522 860 b 689 686 638 842 689 793 b 535 513 689 578 624 521 b 442 510 508 510 485 510 z "},"Ŗ":{"ha":860,"x_min":0,"x_max":0,"o":"m 769 251 b 646 471 761 347 724 435 b 817 697 735 499 817 571 b 578 953 817 858 717 935 b 453 958 535 958 501 958 l 139 958 l 139 0 l 258 0 l 258 413 l 439 413 b 507 411 461 413 485 413 b 650 240 601 404 639 339 b 701 0 663 122 675 61 l 833 0 b 769 251 794 51 781 126 z m 258 510 l 258 861 l 453 861 b 549 856 496 861 522 860 b 689 686 638 842 689 793 b 535 513 689 578 624 521 b 442 510 508 510 485 510 z m 406 -71 l 333 -271 l 418 -271 l 501 -87 l 501 -71 z "},"S":{"ha":813,"x_min":0,"x_max":0,"o":"m 436 978 b 117 708 260 978 117 874 b 404 443 117 550 235 482 b 639 235 572 404 639 351 b 440 75 639 135 550 75 b 200 272 315 75 228 146 l 72 272 b 438 -19 93 88 226 -19 b 767 257 622 -19 767 89 b 450 554 767 419 661 506 b 244 736 304 588 244 632 b 426 883 244 836 325 883 b 629 693 547 883 618 814 l 757 693 b 436 978 739 857 635 978 z "},"Ś":{"ha":813,"x_min":0,"x_max":0,"o":"m 454 1022 l 563 1153 l 451 1153 l 376 1022 z m 436 978 b 117 708 260 978 117 874 b 404 443 117 550 235 482 b 639 235 572 404 639 351 b 440 75 639 135 550 75 b 200 272 315 75 228 146 l 72 272 b 438 -19 93 88 226 -19 b 767 257 622 -19 767 89 b 450 554 767 419 661 506 b 244 736 304 588 244 632 b 426 883 244 836 325 883 b 629 693 547 883 618 814 l 757 693 b 436 978 739 857 635 978 z "},"Š":{"ha":813,"x_min":0,"x_max":0,"o":"m 382 1022 l 464 1022 l 557 1153 l 465 1153 l 424 1076 l 382 1153 l 289 1153 z m 450 554 b 244 736 304 588 244 632 b 426 883 244 836 325 883 b 629 693 547 883 618 814 l 757 693 b 436 978 739 857 635 978 b 117 708 260 978 117 874 b 404 443 117 550 235 482 b 639 235 572 404 639 351 b 440 75 639 135 550 75 b 200 272 315 75 228 146 l 72 272 b 438 -19 93 88 226 -19 b 767 257 622 -19 767 89 b 450 554 767 419 661 506 z "},"Ş":{"ha":813,"x_min":0,"x_max":0,"o":"m 767 257 b 450 554 767 419 661 506 b 244 736 304 588 244 632 b 426 883 244 836 325 883 b 629 693 547 883 618 814 l 757 693 b 436 978 739 857 635 978 b 117 708 260 978 117 874 b 404 443 117 550 235 482 b 639 235 572 404 639 351 b 440 75 639 135 550 75 b 200 272 315 75 228 146 l 72 272 b 382 -17 92 104 203 1 l 332 -108 b 465 -172 428 -101 465 -125 b 379 -233 465 -210 436 -233 b 306 -218 350 -233 326 -229 l 306 -279 b 375 -292 325 -287 350 -292 b 546 -171 476 -292 546 -249 b 433 -56 546 -106 507 -65 l 453 -19 b 767 257 631 -12 767 93 z "},"Ș":{"ha":813,"x_min":0,"x_max":0,"o":"m 436 978 b 117 708 260 978 117 874 b 404 443 117 550 235 482 b 639 235 572 404 639 351 b 440 75 639 135 550 75 b 200 272 315 75 228 146 l 72 272 b 438 -19 93 88 226 -19 b 767 257 622 -19 767 89 b 450 554 767 419 661 506 b 244 736 304 588 244 632 b 426 883 244 836 325 883 b 629 693 547 883 618 814 l 757 693 b 436 978 739 857 635 978 z m 483 -87 l 483 -71 l 388 -71 l 315 -271 l 400 -271 z "},"T":{"ha":850,"x_min":0,"x_max":0,"o":"m 850 861 l 850 958 l 47 958 l 47 861 l 389 861 l 389 0 l 508 0 l 508 861 z "},"Ŧ":{"ha":850,"x_min":0,"x_max":0,"o":"m 508 861 l 850 861 l 850 958 l 47 958 l 47 861 l 389 861 l 389 501 l 233 501 l 233 424 l 389 424 l 389 0 l 508 0 l 508 424 l 664 424 l 664 501 l 508 501 z "},"Ť":{"ha":850,"x_min":0,"x_max":0,"o":"m 408 1022 l 490 1022 l 583 1153 l 492 1153 l 450 1076 l 408 1153 l 315 1153 z m 850 861 l 850 958 l 47 958 l 47 861 l 389 861 l 389 0 l 508 0 l 508 861 z "},"Ţ":{"ha":850,"x_min":0,"x_max":0,"o":"m 490 0 l 508 0 l 508 861 l 850 861 l 850 958 l 47 958 l 47 861 l 389 861 l 389 0 l 417 0 l 358 -108 b 492 -172 454 -101 492 -125 b 406 -233 492 -210 463 -233 b 332 -218 376 -233 353 -229 l 332 -279 b 401 -292 351 -287 376 -292 b 572 -171 503 -292 572 -249 b 460 -56 572 -106 533 -65 z "},"Ț":{"ha":850,"x_min":0,"x_max":0,"o":"m 850 958 l 47 958 l 47 861 l 389 861 l 389 0 l 508 0 l 508 861 l 850 861 z m 414 -71 l 342 -271 l 426 -271 l 510 -87 l 510 -71 z "},"U":{"ha":947,"x_min":0,"x_max":0,"o":"m 850 958 l 731 958 l 731 365 b 728 281 731 335 731 306 b 490 75 717 160 638 75 b 253 281 343 75 264 160 b 250 365 250 306 250 335 l 250 958 l 131 958 l 131 354 b 133 268 131 324 131 296 b 490 -19 147 108 256 -19 b 847 268 725 -19 833 108 b 850 354 850 296 850 324 z "},"Ú":{"ha":947,"x_min":0,"x_max":0,"o":"m 522 1022 l 631 1153 l 519 1153 l 444 1022 z m 850 958 l 731 958 l 731 365 b 728 281 731 335 731 306 b 490 75 717 160 638 75 b 253 281 343 75 264 160 b 250 365 250 306 250 335 l 250 958 l 131 958 l 131 354 b 133 268 131 324 131 296 b 490 -19 147 108 256 -19 b 847 268 725 -19 833 108 b 850 354 850 296 850 324 z "},"Û":{"ha":947,"x_min":0,"x_max":0,"o":"m 449 1022 l 490 1099 l 532 1022 l 625 1022 l 532 1153 l 450 1153 l 357 1022 z m 850 958 l 731 958 l 731 365 b 728 281 731 335 731 306 b 490 75 717 160 638 75 b 253 281 343 75 264 160 b 250 365 250 306 250 335 l 250 958 l 131 958 l 131 354 b 133 268 131 324 131 296 b 490 -19 147 108 256 -19 b 847 268 725 -19 833 108 b 850 354 850 296 850 324 z "},"Ü":{"ha":947,"x_min":0,"x_max":0,"o":"m 393 1151 b 329 1088 358 1151 329 1122 b 393 1024 329 1053 358 1024 b 457 1088 428 1024 457 1053 b 393 1151 457 1122 428 1151 z m 588 1151 b 524 1088 553 1151 524 1122 b 588 1024 524 1053 553 1024 b 651 1088 622 1024 651 1053 b 588 1151 651 1122 622 1151 z m 850 958 l 731 958 l 731 365 b 728 281 731 335 731 306 b 490 75 717 160 638 75 b 253 281 343 75 264 160 b 250 365 250 306 250 335 l 250 958 l 131 958 l 131 354 b 133 268 131 324 131 296 b 490 -19 147 108 256 -19 b 847 268 725 -19 833 108 b 850 354 850 296 850 324 z "},"Ù":{"ha":947,"x_min":0,"x_max":0,"o":"m 535 1022 l 460 1153 l 349 1153 l 457 1022 z m 850 958 l 731 958 l 731 365 b 728 281 731 335 731 306 b 490 75 717 160 638 75 b 253 281 343 75 264 160 b 250 365 250 306 250 335 l 250 958 l 131 958 l 131 354 b 133 268 131 324 131 296 b 490 -19 147 108 256 -19 b 847 268 725 -19 833 108 b 850 354 850 296 850 324 z "},"Ű":{"ha":947,"x_min":0,"x_max":0,"o":"m 424 1022 l 532 1153 l 421 1153 l 346 1022 z m 575 1022 l 683 1153 l 572 1153 l 497 1022 z m 850 958 l 731 958 l 731 365 b 728 281 731 335 731 306 b 490 75 717 160 638 75 b 253 281 343 75 264 160 b 250 365 250 306 250 335 l 250 958 l 131 958 l 131 354 b 133 268 131 324 131 296 b 490 -19 147 108 256 -19 b 847 268 725 -19 833 108 b 850 354 850 296 850 324 z "},"Ū":{"ha":947,"x_min":0,"x_max":0,"o":"m 657 1051 l 657 1124 l 324 1124 l 324 1051 z m 850 958 l 731 958 l 731 365 b 728 281 731 335 731 306 b 490 75 717 160 638 75 b 253 281 343 75 264 160 b 250 365 250 306 250 335 l 250 958 l 131 958 l 131 354 b 133 268 131 324 131 296 b 490 -19 147 108 256 -19 b 847 268 725 -19 833 108 b 850 354 850 296 850 324 z "},"Ų":{"ha":947,"x_min":0,"x_max":0,"o":"m 850 958 l 731 958 l 731 365 b 728 281 731 335 731 306 b 490 75 717 160 638 75 b 253 281 343 75 264 160 b 250 365 250 306 250 335 l 250 958 l 131 958 l 131 354 b 133 268 131 324 131 296 b 481 -19 147 111 253 -15 b 389 -192 428 -57 389 -115 b 518 -310 389 -279 442 -310 b 642 -275 564 -310 607 -299 l 642 -207 b 564 -235 617 -226 592 -235 b 503 -165 524 -235 503 -217 b 608 -7 503 -89 549 -29 b 847 268 763 29 836 138 b 850 354 850 296 850 324 z "},"Ů":{"ha":947,"x_min":0,"x_max":0,"o":"m 490 1214 b 364 1104 417 1214 364 1168 b 490 994 364 1040 417 994 b 617 1104 564 994 617 1040 b 490 1214 617 1168 564 1214 z m 490 1164 b 547 1104 524 1164 547 1139 b 490 1044 547 1069 524 1044 b 433 1104 457 1044 433 1069 b 490 1164 433 1139 457 1164 z m 850 958 l 731 958 l 731 365 b 728 281 731 335 731 306 b 490 75 717 160 638 75 b 253 281 343 75 264 160 b 250 365 250 306 250 335 l 250 958 l 131 958 l 131 354 b 133 268 131 324 131 296 b 490 -19 147 108 256 -19 b 847 268 725 -19 833 108 b 850 354 850 296 850 324 z "},"V":{"ha":864,"x_min":0,"x_max":0,"o":"m 536 0 l 881 958 l 753 958 l 458 90 l 174 958 l 44 958 l 375 0 z "},"W":{"ha":1322,"x_min":0,"x_max":0,"o":"m 1313 958 l 1186 958 l 974 106 l 757 944 l 596 944 l 374 107 l 172 958 l 36 958 l 289 0 l 447 0 l 672 826 l 889 0 l 1046 0 z "},"Ẃ":{"ha":1322,"x_min":0,"x_max":0,"o":"m 708 1022 l 817 1153 l 706 1153 l 631 1022 z m 1313 958 l 1186 958 l 974 106 l 757 944 l 596 944 l 374 107 l 172 958 l 36 958 l 289 0 l 447 0 l 672 826 l 889 0 l 1046 0 z "},"Ŵ":{"ha":1322,"x_min":0,"x_max":0,"o":"m 635 1022 l 676 1099 l 718 1022 l 811 1022 l 718 1153 l 636 1153 l 543 1022 z m 1313 958 l 1186 958 l 974 106 l 757 944 l 596 944 l 374 107 l 172 958 l 36 958 l 289 0 l 447 0 l 672 826 l 889 0 l 1046 0 z "},"Ẅ":{"ha":1322,"x_min":0,"x_max":0,"o":"m 579 1024 b 643 1088 614 1024 643 1053 b 579 1151 643 1122 614 1151 b 515 1088 544 1151 515 1122 b 579 1024 515 1053 544 1024 z m 774 1024 b 838 1088 808 1024 838 1053 b 774 1151 838 1122 808 1151 b 710 1088 739 1151 710 1122 b 774 1024 710 1053 739 1024 z m 1313 958 l 1186 958 l 974 106 l 757 944 l 596 944 l 374 107 l 172 958 l 36 958 l 289 0 l 447 0 l 672 826 l 889 0 l 1046 0 z "},"Ẁ":{"ha":1322,"x_min":0,"x_max":0,"o":"m 643 1022 l 721 1022 l 646 1153 l 535 1153 z m 1313 958 l 1186 958 l 974 106 l 757 944 l 596 944 l 374 107 l 172 958 l 36 958 l 289 0 l 447 0 l 672 826 l 889 0 l 1046 0 z "},"X":{"ha":868,"x_min":0,"x_max":0,"o":"m 725 0 l 865 0 l 518 488 l 851 958 l 714 958 l 450 567 l 196 958 l 60 958 l 376 483 l 35 0 l 172 0 l 444 406 z "},"Y":{"ha":807,"x_min":0,"x_max":0,"o":"m 485 378 l 824 958 l 689 958 l 431 493 l 164 958 l 26 958 l 365 378 l 365 0 l 485 0 z "},"Ý":{"ha":807,"x_min":0,"x_max":0,"o":"m 457 1022 l 565 1153 l 454 1153 l 379 1022 z m 485 378 l 824 958 l 689 958 l 431 493 l 164 958 l 26 958 l 365 378 l 365 0 l 485 0 z "},"Ŷ":{"ha":807,"x_min":0,"x_max":0,"o":"m 383 1022 l 425 1099 l 467 1022 l 560 1022 l 467 1153 l 385 1153 l 292 1022 z m 485 378 l 824 958 l 689 958 l 431 493 l 164 958 l 26 958 l 365 378 l 365 0 l 485 0 z "},"Ÿ":{"ha":807,"x_min":0,"x_max":0,"o":"m 328 1024 b 392 1088 363 1024 392 1053 b 328 1151 392 1122 363 1151 b 264 1088 293 1151 264 1122 b 328 1024 264 1053 293 1024 z m 522 1024 b 586 1088 557 1024 586 1053 b 522 1151 586 1122 557 1151 b 458 1088 488 1151 458 1122 b 522 1024 458 1053 488 1024 z m 485 378 l 824 958 l 689 958 l 431 493 l 164 958 l 26 958 l 365 378 l 365 0 l 485 0 z "},"Ỳ":{"ha":807,"x_min":0,"x_max":0,"o":"m 392 1022 l 469 1022 l 394 1153 l 283 1153 z m 485 378 l 824 958 l 689 958 l 431 493 l 164 958 l 26 958 l 365 378 l 365 0 l 485 0 z "},"Z":{"ha":821,"x_min":0,"x_max":0,"o":"m 790 97 l 206 97 l 782 863 l 782 958 l 103 958 l 103 861 l 643 861 l 64 92 l 64 0 l 790 0 z "},"Ź":{"ha":821,"x_min":0,"x_max":0,"o":"m 457 1022 l 565 1153 l 454 1153 l 379 1022 z m 790 97 l 206 97 l 782 863 l 782 958 l 103 958 l 103 861 l 643 861 l 64 92 l 64 0 l 790 0 z "},"Ž":{"ha":821,"x_min":0,"x_max":0,"o":"m 385 1022 l 467 1022 l 560 1153 l 468 1153 l 426 1076 l 385 1153 l 292 1153 z m 790 97 l 206 97 l 782 863 l 782 958 l 103 958 l 103 861 l 643 861 l 64 92 l 64 0 l 790 0 z "},"Ż":{"ha":821,"x_min":0,"x_max":0,"o":"m 425 1024 b 489 1088 460 1024 489 1053 b 425 1151 489 1122 460 1151 b 361 1088 390 1151 361 1122 b 425 1024 361 1053 390 1024 z m 790 97 l 206 97 l 782 863 l 782 958 l 103 958 l 103 861 l 643 861 l 64 92 l 64 0 l 790 0 z "},"a":{"ha":738,"x_min":0,"x_max":0,"o":"m 525 0 l 644 0 b 631 188 633 82 631 132 l 631 464 b 626 561 631 496 629 532 b 365 756 614 682 540 756 b 82 508 203 756 93 665 l 207 508 b 365 664 215 610 265 664 b 508 551 464 664 503 619 b 511 463 511 524 511 494 l 511 443 l 464 443 b 50 190 175 443 50 357 b 288 -19 50 54 154 -19 b 472 26 358 -19 422 -8 l 513 106 z m 328 72 b 181 200 238 72 181 111 b 511 354 181 326 308 369 l 511 279 b 328 72 511 146 439 72 z "},"á":{"ha":738,"x_min":0,"x_max":0,"o":"m 397 806 l 515 958 l 404 958 l 319 806 z m 525 0 l 644 0 b 631 188 633 82 631 132 l 631 464 b 626 561 631 496 629 532 b 365 756 614 682 540 756 b 82 508 203 756 93 665 l 207 508 b 365 664 215 610 265 664 b 508 551 464 664 503 619 b 511 463 511 524 511 494 l 511 443 l 464 443 b 50 190 175 443 50 357 b 288 -19 50 54 154 -19 b 472 26 358 -19 422 -8 l 513 106 z m 328 72 b 181 200 238 72 181 111 b 511 354 181 326 308 369 l 511 279 b 328 72 511 146 439 72 z "},"ă":{"ha":738,"x_min":0,"x_max":0,"o":"m 367 786 b 508 958 465 786 508 843 l 435 958 b 367 863 433 886 407 863 b 299 958 326 863 300 886 l 225 958 b 367 786 225 843 267 786 z m 525 0 l 644 0 b 631 188 633 82 631 132 l 631 464 b 626 561 631 496 629 532 b 365 756 614 682 540 756 b 82 508 203 756 93 665 l 207 508 b 365 664 215 610 265 664 b 508 551 464 664 503 619 b 511 463 511 524 511 494 l 511 443 l 464 443 b 50 190 175 443 50 357 b 288 -19 50 54 154 -19 b 472 26 358 -19 422 -8 l 513 106 z m 328 72 b 181 200 238 72 181 111 b 511 354 181 326 308 369 l 511 279 b 328 72 511 146 439 72 z "},"â":{"ha":738,"x_min":0,"x_max":0,"o":"m 321 806 l 367 893 l 413 806 l 501 806 l 408 958 l 326 958 l 233 806 z m 525 0 l 644 0 b 631 188 633 82 631 132 l 631 464 b 626 561 631 496 629 532 b 365 756 614 682 540 756 b 82 508 203 756 93 665 l 207 508 b 365 664 215 610 265 664 b 508 551 464 664 503 619 b 511 463 511 524 511 494 l 511 443 l 464 443 b 50 190 175 443 50 357 b 288 -19 50 54 154 -19 b 472 26 358 -19 422 -8 l 513 106 z m 328 72 b 181 200 238 72 181 111 b 511 354 181 326 308 369 l 511 279 b 328 72 511 146 439 72 z "},"ä":{"ha":738,"x_min":0,"x_max":0,"o":"m 265 810 b 329 874 300 810 329 839 b 265 938 329 908 300 938 b 201 874 231 938 201 908 b 265 810 201 839 231 810 z m 468 810 b 532 874 503 810 532 839 b 468 938 532 908 503 938 b 404 874 433 938 404 908 b 468 810 404 839 433 810 z m 525 0 l 644 0 b 631 188 633 82 631 132 l 631 464 b 626 561 631 496 629 532 b 365 756 614 682 540 756 b 82 508 203 756 93 665 l 207 508 b 365 664 215 610 265 664 b 508 551 464 664 503 619 b 511 463 511 524 511 494 l 511 443 l 464 443 b 50 190 175 443 50 357 b 288 -19 50 54 154 -19 b 472 26 358 -19 422 -8 l 513 106 z m 328 72 b 181 200 238 72 181 111 b 511 354 181 326 308 369 l 511 279 b 328 72 511 146 439 72 z "},"à":{"ha":738,"x_min":0,"x_max":0,"o":"m 333 806 l 411 806 l 326 958 l 215 958 z m 525 0 l 644 0 b 631 188 633 82 631 132 l 631 464 b 626 561 631 496 629 532 b 365 756 614 682 540 756 b 82 508 203 756 93 665 l 207 508 b 365 664 215 610 265 664 b 508 551 464 664 503 619 b 511 463 511 524 511 494 l 511 443 l 464 443 b 50 190 175 443 50 357 b 288 -19 50 54 154 -19 b 472 26 358 -19 422 -8 l 513 106 z m 328 72 b 181 200 238 72 181 111 b 511 354 181 326 308 369 l 511 279 b 328 72 511 146 439 72 z "},"ā":{"ha":738,"x_min":0,"x_max":0,"o":"m 533 839 l 533 911 l 200 911 l 200 839 z m 525 0 l 644 0 b 631 188 633 82 631 132 l 631 464 b 626 561 631 496 629 532 b 365 756 614 682 540 756 b 82 508 203 756 93 665 l 207 508 b 365 664 215 610 265 664 b 508 551 464 664 503 619 b 511 463 511 524 511 494 l 511 443 l 464 443 b 50 190 175 443 50 357 b 288 -19 50 54 154 -19 b 472 26 358 -19 422 -8 l 513 106 z m 328 72 b 181 200 238 72 181 111 b 511 354 181 326 308 369 l 511 279 b 328 72 511 146 439 72 z "},"ą":{"ha":738,"x_min":0,"x_max":0,"o":"m 482 -165 b 613 0 482 -78 542 -12 l 644 0 b 631 188 633 82 631 132 l 631 464 b 626 561 631 496 629 532 b 365 756 614 682 540 756 b 82 508 203 756 93 665 l 207 508 b 365 664 215 610 265 664 b 508 551 464 664 503 619 b 511 463 511 524 511 494 l 511 443 l 464 443 b 50 190 175 443 50 357 b 288 -19 50 54 154 -19 b 472 26 358 -19 422 -8 l 513 106 l 524 15 b 368 -192 442 -17 368 -87 b 497 -310 368 -279 421 -310 b 621 -275 543 -310 586 -299 l 621 -207 b 543 -235 596 -226 571 -235 b 482 -165 503 -235 482 -217 z m 328 72 b 181 200 238 72 181 111 b 511 354 181 326 308 369 l 511 279 b 328 72 511 146 439 72 z "},"å":{"ha":738,"x_min":0,"x_max":0,"o":"m 367 785 b 493 901 440 785 493 833 b 367 1018 493 969 440 1018 b 240 901 293 1018 240 969 b 367 785 240 833 293 785 z m 367 968 b 424 901 400 968 424 943 b 367 835 424 860 400 835 b 310 901 333 835 310 860 b 367 968 310 943 333 968 z m 525 0 l 644 0 b 631 188 633 82 631 132 l 631 464 b 626 561 631 496 629 532 b 365 756 614 682 540 756 b 82 508 203 756 93 665 l 207 508 b 365 664 215 610 265 664 b 508 551 464 664 503 619 b 511 463 511 524 511 494 l 511 443 l 464 443 b 50 190 175 443 50 357 b 288 -19 50 54 154 -19 b 472 26 358 -19 422 -8 l 513 106 z m 328 72 b 181 200 238 72 181 111 b 511 354 181 326 308 369 l 511 279 b 328 72 511 146 439 72 z "},"ã":{"ha":738,"x_min":0,"x_max":0,"o":"m 294 861 b 356 846 307 861 322 857 b 442 828 393 833 415 828 b 514 926 486 828 514 849 l 461 926 b 439 899 461 906 453 899 b 378 914 426 899 411 903 b 292 932 340 926 318 932 b 219 833 247 932 219 911 l 272 833 b 294 861 272 854 281 861 z m 525 0 l 644 0 b 631 188 633 82 631 132 l 631 464 b 626 561 631 496 629 532 b 365 756 614 682 540 756 b 82 508 203 756 93 665 l 207 508 b 365 664 215 610 265 664 b 508 551 464 664 503 619 b 511 463 511 524 511 494 l 511 443 l 464 443 b 50 190 175 443 50 357 b 288 -19 50 54 154 -19 b 472 26 358 -19 422 -8 l 513 106 z m 328 72 b 181 200 238 72 181 111 b 511 354 181 326 308 369 l 511 279 b 328 72 511 146 439 72 z "},"æ":{"ha":1233,"x_min":0,"x_max":0,"o":"m 1178 389 b 863 756 1178 604 1065 756 b 610 622 749 756 665 707 b 365 756 575 708 501 756 b 82 508 193 756 86 665 l 207 508 b 365 664 211 610 261 664 b 525 463 481 664 525 585 l 525 424 l 478 424 b 50 190 189 424 50 357 b 297 -19 50 54 164 -19 b 533 65 382 -19 460 1 l 571 140 b 847 -19 629 24 731 -19 b 1168 238 999 -19 1139 60 l 1043 238 b 853 72 1026 132 949 72 b 644 332 744 72 656 149 l 1175 332 b 1178 389 1178 358 1178 378 z m 644 424 b 860 664 660 581 742 664 b 1057 424 981 664 1044 576 z m 525 290 b 328 72 525 157 439 72 b 181 200 238 72 181 111 b 525 332 181 319 308 340 z "},"b":{"ha":849,"x_min":0,"x_max":0,"o":"m 472 756 b 278 697 397 756 319 732 l 222 618 l 222 1021 l 103 1021 l 103 0 l 222 0 l 222 101 l 271 29 b 447 -19 308 -1 386 -19 b 807 379 638 -19 807 107 b 472 756 807 594 688 756 z m 447 72 b 222 335 342 72 222 144 l 222 375 b 454 664 222 586 332 664 b 676 365 601 664 676 532 b 447 72 676 172 576 72 z "},"c":{"ha":735,"x_min":0,"x_max":0,"o":"m 388 756 b 42 367 203 756 42 615 b 369 -19 42 97 183 -19 b 692 235 533 -19 656 64 l 567 235 b 376 72 542 128 474 72 b 172 375 267 72 172 161 b 385 664 172 574 269 664 b 574 489 483 664 547 607 l 699 489 b 388 756 676 650 564 756 z "},"ć":{"ha":735,"x_min":0,"x_max":0,"o":"m 404 806 l 522 958 l 411 958 l 326 806 z m 388 756 b 42 367 203 756 42 615 b 369 -19 42 97 183 -19 b 692 235 533 -19 656 64 l 567 235 b 376 72 542 128 474 72 b 172 375 267 72 172 161 b 385 664 172 574 269 664 b 574 489 483 664 547 607 l 699 489 b 388 756 676 650 564 756 z "},"č":{"ha":735,"x_min":0,"x_max":0,"o":"m 333 806 l 415 806 l 508 958 l 421 958 l 375 871 l 329 958 l 240 958 z m 376 72 b 172 375 267 72 172 161 b 385 664 172 574 269 664 b 574 489 483 664 547 607 l 699 489 b 388 756 676 650 564 756 b 42 367 203 756 42 615 b 369 -19 42 97 183 -19 b 692 235 533 -19 656 64 l 567 235 b 376 72 542 128 474 72 z "},"ç":{"ha":735,"x_min":0,"x_max":0,"o":"m 376 72 b 172 375 267 72 172 161 b 385 664 172 574 269 664 b 574 489 483 664 547 607 l 699 489 b 388 756 676 650 564 756 b 42 367 203 756 42 615 b 319 -17 42 122 158 3 l 269 -108 b 403 -172 365 -101 403 -125 b 317 -233 403 -210 374 -233 b 243 -218 288 -233 264 -229 l 243 -279 b 313 -292 263 -287 288 -292 b 483 -171 414 -292 483 -249 b 371 -56 483 -106 444 -65 l 390 -19 b 692 235 544 -12 657 71 l 567 235 b 376 72 542 128 474 72 z "},"ċ":{"ha":735,"x_min":0,"x_max":0,"o":"m 374 978 b 297 901 331 978 297 944 b 374 825 297 858 331 825 b 450 901 417 825 450 858 b 374 978 450 944 417 978 z m 388 756 b 42 367 203 756 42 615 b 369 -19 42 97 183 -19 b 692 235 533 -19 656 64 l 567 235 b 376 72 542 128 474 72 b 172 375 267 72 172 161 b 385 664 172 574 269 664 b 574 489 483 664 547 607 l 699 489 b 388 756 676 650 564 756 z "},"d":{"ha":854,"x_min":0,"x_max":0,"o":"m 746 1021 l 626 1021 l 626 635 l 578 707 b 401 756 540 738 463 756 b 42 357 211 756 42 629 b 376 -19 42 142 161 -19 b 571 39 451 -19 529 4 l 626 118 l 626 0 l 746 0 z m 394 72 b 172 371 247 72 172 204 b 401 664 172 564 272 664 b 626 401 507 664 626 592 l 626 361 b 394 72 626 150 517 72 z "},"ð":{"ha":813,"x_min":0,"x_max":0,"o":"m 671 919 l 643 992 l 550 954 b 410 1035 511 985 464 1013 l 335 958 b 440 908 374 944 408 928 l 289 846 l 317 774 l 508 853 b 603 632 564 796 596 724 l 540 715 b 378 756 489 746 446 756 b 42 357 201 756 42 607 b 385 -19 42 142 156 -19 b 747 426 575 -19 747 103 b 613 896 747 632 708 785 z m 617 361 b 393 72 617 163 515 72 b 172 371 246 72 172 188 b 392 664 172 544 263 664 b 617 401 497 664 617 592 z "},"ď":{"ha":854,"x_min":0,"x_max":0,"o":"m 626 1021 l 626 635 l 578 707 b 401 756 540 738 463 756 b 42 357 211 756 42 629 b 376 -19 42 142 161 -19 b 571 39 451 -19 529 4 l 626 118 l 626 0 l 746 0 l 746 1021 z m 950 1021 l 854 1021 l 782 821 l 867 821 l 950 1004 z m 394 72 b 172 371 247 72 172 204 b 401 664 172 564 272 664 b 626 401 507 664 626 592 l 626 361 b 394 72 626 150 517 72 z "},"đ":{"ha":860,"x_min":0,"x_max":0,"o":"m 807 826 l 807 904 l 746 904 l 746 1021 l 626 1021 l 626 904 l 465 904 l 465 826 l 626 826 l 626 635 l 578 707 b 401 756 540 738 463 756 b 42 357 211 756 42 629 b 376 -19 42 142 161 -19 b 571 39 451 -19 529 4 l 626 118 l 626 0 l 746 0 l 746 826 z m 394 72 b 172 371 247 72 172 204 b 401 664 172 564 272 664 b 626 401 507 664 626 592 l 626 361 b 394 72 626 150 517 72 z "},"e":{"ha":763,"x_min":0,"x_max":0,"o":"m 707 389 b 392 756 707 604 594 756 b 42 365 190 756 42 604 b 376 -19 42 106 185 -19 b 697 238 528 -19 668 60 l 572 238 b 382 72 556 132 478 72 b 171 332 274 72 182 138 l 704 332 b 707 389 707 358 707 378 z m 389 664 b 586 424 510 664 575 576 l 172 424 b 389 664 186 581 272 664 z "},"é":{"ha":763,"x_min":0,"x_max":0,"o":"m 415 806 l 533 958 l 422 958 l 338 806 z m 707 389 b 392 756 707 604 594 756 b 42 365 190 756 42 604 b 376 -19 42 106 185 -19 b 697 238 528 -19 668 60 l 572 238 b 382 72 556 132 478 72 b 171 332 274 72 182 138 l 704 332 b 707 389 707 358 707 378 z m 389 664 b 586 424 510 664 575 576 l 172 424 b 389 664 186 581 272 664 z "},"ě":{"ha":763,"x_min":0,"x_max":0,"o":"m 344 806 l 426 806 l 519 958 l 432 958 l 386 871 l 340 958 l 251 958 z m 707 389 b 392 756 707 604 594 756 b 42 365 190 756 42 604 b 376 -19 42 106 185 -19 b 697 238 528 -19 668 60 l 572 238 b 382 72 556 132 478 72 b 171 332 274 72 182 138 l 704 332 b 707 389 707 358 707 378 z m 389 664 b 586 424 510 664 575 576 l 172 424 b 389 664 186 581 272 664 z "},"ê":{"ha":763,"x_min":0,"x_max":0,"o":"m 339 806 l 385 893 l 431 806 l 519 806 l 426 958 l 344 958 l 251 806 z m 707 389 b 392 756 707 604 594 756 b 42 365 190 756 42 604 b 376 -19 42 106 185 -19 b 697 238 528 -19 668 60 l 572 238 b 382 72 556 132 478 72 b 171 332 274 72 182 138 l 704 332 b 707 389 707 358 707 378 z m 389 664 b 586 424 510 664 575 576 l 172 424 b 389 664 186 581 272 664 z "},"ë":{"ha":763,"x_min":0,"x_max":0,"o":"m 283 810 b 347 874 318 810 347 839 b 283 938 347 908 318 938 b 219 874 249 938 219 908 b 283 810 219 839 249 810 z m 486 810 b 550 874 521 810 550 839 b 486 938 550 908 521 938 b 422 874 451 938 422 908 b 486 810 422 839 451 810 z m 707 389 b 392 756 707 604 594 756 b 42 365 190 756 42 604 b 376 -19 42 106 185 -19 b 697 238 528 -19 668 60 l 572 238 b 382 72 556 132 478 72 b 171 332 274 72 182 138 l 704 332 b 707 389 707 358 707 378 z m 389 664 b 586 424 510 664 575 576 l 172 424 b 389 664 186 581 272 664 z "},"ė":{"ha":763,"x_min":0,"x_max":0,"o":"m 385 825 b 461 901 428 825 461 858 b 385 978 461 944 428 978 b 308 901 342 978 308 944 b 385 825 308 858 342 825 z m 707 389 b 392 756 707 604 594 756 b 42 365 190 756 42 604 b 376 -19 42 106 185 -19 b 697 238 528 -19 668 60 l 572 238 b 382 72 556 132 478 72 b 171 332 274 72 182 138 l 704 332 b 707 389 707 358 707 378 z m 389 664 b 586 424 510 664 575 576 l 172 424 b 389 664 186 581 272 664 z "},"è":{"ha":763,"x_min":0,"x_max":0,"o":"m 351 806 l 429 806 l 344 958 l 233 958 z m 707 389 b 392 756 707 604 594 756 b 42 365 190 756 42 604 b 376 -19 42 106 185 -19 b 697 238 528 -19 668 60 l 572 238 b 382 72 556 132 478 72 b 171 332 274 72 182 138 l 704 332 b 707 389 707 358 707 378 z m 389 664 b 586 424 510 664 575 576 l 172 424 b 389 664 186 581 272 664 z "},"ē":{"ha":763,"x_min":0,"x_max":0,"o":"m 551 839 l 551 911 l 218 911 l 218 839 z m 707 389 b 392 756 707 604 594 756 b 42 365 190 756 42 604 b 376 -19 42 106 185 -19 b 697 238 528 -19 668 60 l 572 238 b 382 72 556 132 478 72 b 171 332 274 72 182 138 l 704 332 b 707 389 707 358 707 378 z m 389 664 b 586 424 510 664 575 576 l 172 424 b 389 664 186 581 272 664 z "},"ę":{"ha":763,"x_min":0,"x_max":0,"o":"m 707 389 b 392 756 707 604 594 756 b 42 365 190 756 42 604 b 349 -18 42 118 171 -7 b 256 -192 296 -57 256 -115 b 385 -310 256 -279 308 -310 b 508 -275 431 -310 474 -299 l 508 -207 b 431 -235 483 -226 458 -235 b 369 -165 390 -235 369 -217 b 471 -8 369 -90 414 -32 b 500 0 481 -6 490 -3 b 697 238 599 33 676 110 l 572 238 b 382 72 556 132 478 72 b 171 332 274 72 182 138 l 704 332 b 707 389 707 358 707 378 z m 389 664 b 586 424 510 664 575 576 l 172 424 b 389 664 186 581 272 664 z "},"f":{"ha":403,"x_min":0,"x_max":0,"o":"m 232 878 b 392 942 242 938 301 958 l 392 1040 b 307 1047 367 1044 338 1047 b 113 881 197 1047 125 988 b 108 792 110 856 108 819 l 108 731 l 29 731 l 29 639 l 108 639 l 108 0 l 228 0 l 228 639 l 379 639 l 379 731 l 228 731 l 228 803 b 232 878 228 824 229 858 z "},"g":{"ha":854,"x_min":0,"x_max":0,"o":"m 746 736 l 626 736 l 626 635 l 578 707 b 401 756 540 738 463 756 b 42 357 211 756 42 629 b 376 -19 42 142 161 -19 b 571 39 451 -19 529 4 l 626 118 l 626 106 b 625 25 626 83 626 60 b 394 -200 619 -117 540 -200 b 186 -47 268 -200 196 -137 l 185 -35 l 64 -35 l 65 -49 b 394 -292 81 -204 185 -292 b 744 38 607 -292 738 -178 b 746 181 746 78 746 135 z m 394 72 b 172 371 247 72 172 204 b 401 664 172 564 272 664 b 626 401 507 664 626 592 l 626 361 b 394 72 626 150 517 72 z "},"ğ":{"ha":854,"x_min":0,"x_max":0,"o":"m 421 786 b 563 958 519 786 563 843 l 489 958 b 421 863 488 886 461 863 b 353 958 381 863 354 886 l 279 958 b 421 786 279 843 321 786 z m 746 736 l 626 736 l 626 635 l 578 707 b 401 756 540 738 463 756 b 42 357 211 756 42 629 b 376 -19 42 142 161 -19 b 571 39 451 -19 529 4 l 626 118 l 626 106 b 625 25 626 83 626 60 b 394 -200 619 -117 540 -200 b 186 -47 268 -200 196 -137 l 185 -35 l 64 -35 l 65 -49 b 394 -292 81 -204 185 -292 b 744 38 607 -292 738 -178 b 746 181 746 78 746 135 z m 394 72 b 172 371 247 72 172 204 b 401 664 172 564 272 664 b 626 401 507 664 626 592 l 626 361 b 394 72 626 150 517 72 z "},"ģ":{"ha":854,"x_min":0,"x_max":0,"o":"m 464 807 l 536 1007 l 451 1007 l 368 824 l 368 807 z m 746 736 l 626 736 l 626 635 l 578 707 b 401 756 540 738 463 756 b 42 357 211 756 42 629 b 376 -19 42 142 161 -19 b 571 39 451 -19 529 4 l 626 118 l 626 106 b 625 25 626 83 626 60 b 394 -200 619 -117 540 -200 b 186 -47 268 -200 196 -137 l 185 -35 l 64 -35 l 65 -49 b 394 -292 81 -204 185 -292 b 744 38 607 -292 738 -178 b 746 181 746 78 746 135 z m 394 72 b 172 371 247 72 172 204 b 401 664 172 564 272 664 b 626 401 507 664 626 592 l 626 361 b 394 72 626 150 517 72 z "},"ġ":{"ha":854,"x_min":0,"x_max":0,"o":"m 421 825 b 497 901 464 825 497 858 b 421 978 497 944 464 978 b 344 901 378 978 344 944 b 421 825 344 858 378 825 z m 746 736 l 626 736 l 626 635 l 578 707 b 401 756 540 738 463 756 b 42 357 211 756 42 629 b 376 -19 42 142 161 -19 b 571 39 451 -19 529 4 l 626 118 l 626 106 b 625 25 626 83 626 60 b 394 -200 619 -117 540 -200 b 186 -47 268 -200 196 -137 l 185 -35 l 64 -35 l 65 -49 b 394 -292 81 -204 185 -292 b 744 38 607 -292 738 -178 b 746 181 746 78 746 135 z m 394 72 b 172 371 247 72 172 204 b 401 664 172 564 272 664 b 626 401 507 664 626 592 l 626 361 b 394 72 626 150 517 72 z "},"h":{"ha":824,"x_min":0,"x_max":0,"o":"m 722 540 b 460 756 711 669 621 756 b 268 694 385 756 331 743 l 222 610 l 222 1028 l 103 1028 l 103 0 l 222 0 l 222 324 b 435 661 222 575 319 658 b 603 511 549 664 596 597 b 606 406 606 474 606 443 l 606 0 l 725 0 l 725 414 b 722 540 725 474 725 503 z "},"ħ":{"ha":846,"x_min":0,"x_max":0,"o":"m 744 540 b 482 756 733 669 643 756 b 290 694 407 756 353 743 l 244 610 l 244 826 l 389 826 l 389 904 l 244 904 l 244 1028 l 125 1028 l 125 904 l 47 904 l 47 826 l 125 826 l 125 0 l 244 0 l 244 324 b 457 661 244 575 342 658 b 625 511 571 664 618 597 b 628 406 628 474 628 443 l 628 0 l 747 0 l 747 414 b 744 540 747 474 747 503 z "},"i":{"ha":331,"x_min":0,"x_max":0,"o":"m 163 978 b 86 901 119 978 86 944 b 163 825 86 858 119 825 b 239 901 206 825 239 858 b 163 978 239 944 206 978 z m 222 0 l 222 736 l 103 736 l 103 0 z "},"ı":{"ha":331,"x_min":0,"x_max":0,"o":"m 222 0 l 222 736 l 103 736 l 103 0 z "},"í":{"ha":331,"x_min":0,"x_max":0,"o":"m 193 806 l 311 958 l 200 958 l 115 806 z m 222 0 l 222 736 l 103 736 l 103 0 z "},"î":{"ha":331,"x_min":0,"x_max":0,"o":"m 117 806 l 163 893 l 208 806 l 297 806 l 204 958 l 122 958 l 29 806 z m 103 736 l 103 0 l 222 0 l 222 736 z "},"ï":{"ha":331,"x_min":0,"x_max":0,"o":"m 61 938 b -3 874 26 938 -3 908 b 61 810 -3 839 26 810 b 125 874 96 810 125 839 b 61 938 125 908 96 938 z m 264 938 b 200 874 229 938 200 908 b 264 810 200 839 229 810 b 328 874 299 810 328 839 b 264 938 328 908 299 938 z m 222 0 l 222 736 l 103 736 l 103 0 z "},"ì":{"ha":331,"x_min":0,"x_max":0,"o":"m 207 806 l 122 958 l 11 958 l 129 806 z m 222 0 l 222 736 l 103 736 l 103 0 z "},"ĳ":{"ha":654,"x_min":0,"x_max":0,"o":"m 163 978 b 86 901 119 978 86 944 b 163 825 86 858 119 825 b 239 901 206 825 239 858 b 163 978 239 944 206 978 z m 486 978 b 410 901 443 978 410 944 b 486 825 410 858 443 825 b 563 901 529 825 563 858 b 486 978 563 944 529 978 z m 222 0 l 222 736 l 103 736 l 103 0 z m 546 736 l 426 736 l 426 -69 b 424 -131 426 -90 426 -111 b 313 -192 418 -175 389 -199 l 313 -289 b 369 -292 331 -292 347 -292 b 542 -153 483 -292 532 -242 b 546 -64 544 -128 546 -92 z "},"ī":{"ha":331,"x_min":0,"x_max":0,"o":"m 329 839 l 329 911 l -4 911 l -4 839 z m 222 0 l 222 736 l 103 736 l 103 0 z "},"į":{"ha":331,"x_min":0,"x_max":0,"o":"m 163 825 b 239 901 206 825 239 858 b 163 978 239 944 206 978 b 86 901 119 978 86 944 b 163 825 86 858 119 825 z m 103 736 l 103 15 b -54 -192 21 -15 -54 -86 b 75 -310 -54 -279 -1 -310 b 199 -275 121 -310 164 -299 l 199 -207 b 121 -235 174 -226 149 -235 b 60 -165 81 -235 60 -217 b 190 0 60 -78 119 -12 l 222 0 l 222 736 z "},"j":{"ha":324,"x_min":0,"x_max":0,"o":"m 156 978 b 79 901 113 978 79 944 b 156 825 79 858 113 825 b 232 901 199 825 232 858 b 156 978 232 944 199 978 z m 215 736 l 96 736 l 96 -69 b 93 -131 96 -90 96 -111 b -18 -192 88 -175 58 -199 l -18 -289 b 39 -292 0 -292 17 -292 b 211 -153 153 -292 201 -242 b 215 -64 214 -128 215 -92 z "},"k":{"ha":725,"x_min":0,"x_max":0,"o":"m 560 0 l 722 0 l 375 389 l 718 736 l 565 736 l 222 365 l 222 1021 l 103 1021 l 103 0 l 222 0 l 222 235 l 292 311 z "},"ķ":{"ha":725,"x_min":0,"x_max":0,"o":"m 722 0 l 375 389 l 718 736 l 565 736 l 222 365 l 222 1021 l 103 1021 l 103 0 l 222 0 l 222 235 l 292 311 l 560 0 z m 336 -71 l 264 -271 l 349 -271 l 432 -87 l 432 -71 z "},"l":{"ha":343,"x_min":0,"x_max":0,"o":"m 217 1021 l 97 1021 l 97 207 b 99 110 97 167 97 135 b 224 -6 103 17 154 -6 b 308 0 251 -6 282 -4 l 308 86 b 218 142 243 79 221 94 b 217 211 217 165 217 189 z "},"ĺ":{"ha":343,"x_min":0,"x_max":0,"o":"m 188 1090 l 306 1243 l 194 1243 l 110 1090 z m 217 1021 l 97 1021 l 97 207 b 99 110 97 167 97 135 b 224 -6 103 17 154 -6 b 308 0 251 -6 282 -4 l 308 86 b 218 142 243 79 221 94 b 217 211 217 165 217 189 z "},"ľ":{"ha":343,"x_min":0,"x_max":0,"o":"m 217 1021 l 97 1021 l 97 207 b 99 110 97 167 97 135 b 224 -6 103 17 154 -6 b 308 0 251 -6 282 -4 l 308 86 b 218 142 243 79 221 94 b 217 211 217 165 217 189 z "},"ļ":{"ha":343,"x_min":0,"x_max":0,"o":"m 217 1021 l 97 1021 l 97 207 b 99 110 97 167 97 135 b 224 -6 103 17 154 -6 b 308 0 251 -6 282 -4 l 308 86 b 218 142 243 79 221 94 b 217 211 217 165 217 189 z m 224 -87 l 224 -71 l 128 -71 l 56 -271 l 140 -271 z "},"ŀ":{"ha":486,"x_min":0,"x_max":0,"o":"m 217 1021 l 97 1021 l 97 207 b 99 110 97 167 97 135 b 224 -6 103 17 154 -6 b 308 0 251 -6 282 -4 l 308 86 b 218 142 243 79 221 94 b 217 211 217 165 217 189 z m 390 632 b 314 556 347 632 314 599 b 390 479 314 513 347 479 b 467 556 433 479 467 513 b 390 632 467 599 433 632 z "},"ł":{"ha":394,"x_min":0,"x_max":0,"o":"m 256 142 b 254 211 254 165 254 189 l 254 436 l 344 490 l 344 583 l 254 529 l 254 1021 l 135 1021 l 135 460 l 44 406 l 44 313 l 135 367 l 135 207 b 136 110 135 167 135 135 b 261 -6 140 17 192 -6 b 346 0 289 -6 319 -4 l 346 86 b 256 142 281 79 258 94 z "},"m":{"ha":1188,"x_min":0,"x_max":0,"o":"m 1082 576 b 858 756 1065 678 990 756 b 703 713 793 756 740 743 l 638 618 b 425 756 610 699 538 756 b 269 713 360 756 307 743 l 222 629 l 222 736 l 103 736 l 103 0 l 222 0 l 222 364 b 383 661 222 588 290 661 b 531 538 467 661 519 621 b 536 394 535 500 536 460 l 536 0 l 656 0 l 656 364 b 817 661 656 588 724 661 b 964 538 900 661 953 621 b 969 394 968 500 969 460 l 969 0 l 1089 0 l 1089 450 b 1082 576 1089 510 1088 539 z "},"n":{"ha":824,"x_min":0,"x_max":0,"o":"m 722 540 b 460 756 711 669 621 756 b 268 694 385 756 331 743 l 222 610 l 222 736 l 103 736 l 103 0 l 222 0 l 222 324 b 435 661 222 575 319 661 b 603 511 549 661 596 597 b 606 406 606 474 606 443 l 606 0 l 725 0 l 725 414 b 722 540 725 474 725 503 z "},"ń":{"ha":824,"x_min":0,"x_max":0,"o":"m 572 958 l 461 958 l 376 806 l 454 806 z m 722 540 b 460 756 711 669 621 756 b 268 694 385 756 331 743 l 222 610 l 222 736 l 103 736 l 103 0 l 222 0 l 222 324 b 435 661 222 575 319 661 b 603 511 549 661 596 597 b 606 406 606 474 606 443 l 606 0 l 725 0 l 725 414 b 722 540 725 474 725 503 z "},"ň":{"ha":824,"x_min":0,"x_max":0,"o":"m 465 806 l 558 958 l 471 958 l 425 871 l 379 958 l 290 958 l 383 806 z m 722 540 b 460 756 711 669 621 756 b 268 694 385 756 331 743 l 222 610 l 222 736 l 103 736 l 103 0 l 222 0 l 222 324 b 435 661 222 575 319 661 b 603 511 549 661 596 597 b 606 406 606 474 606 443 l 606 0 l 725 0 l 725 414 b 722 540 725 474 725 503 z "},"ņ":{"ha":824,"x_min":0,"x_max":0,"o":"m 722 540 b 460 756 711 669 621 756 b 268 694 385 756 331 743 l 222 610 l 222 736 l 103 736 l 103 0 l 222 0 l 222 324 b 435 661 222 575 319 661 b 603 511 549 661 596 597 b 606 406 606 474 606 443 l 606 0 l 725 0 l 725 414 b 722 540 725 474 725 503 z m 296 -271 l 381 -271 l 464 -87 l 464 -71 l 368 -71 z "},"ŋ":{"ha":824,"x_min":0,"x_max":0,"o":"m 722 540 b 460 756 711 669 621 756 b 268 694 385 756 331 743 l 222 610 l 222 736 l 103 736 l 103 0 l 222 0 l 222 324 b 435 661 222 575 319 661 b 603 511 549 661 596 597 b 606 406 606 474 606 443 l 606 -83 b 604 -121 606 -97 606 -110 b 493 -194 599 -179 568 -194 l 493 -292 b 724 -132 631 -292 714 -262 b 725 -75 725 -112 725 -100 l 725 414 b 722 540 725 474 725 503 z "},"ñ":{"ha":824,"x_min":0,"x_max":0,"o":"m 351 861 b 413 846 364 861 379 857 b 499 828 450 833 472 828 b 571 926 543 828 571 849 l 518 926 b 496 899 518 906 510 899 b 435 914 483 899 468 903 b 349 932 397 926 375 932 b 276 833 304 932 276 911 l 329 833 b 351 861 329 854 338 861 z m 722 540 b 460 756 711 669 621 756 b 268 694 385 756 331 743 l 222 610 l 222 736 l 103 736 l 103 0 l 222 0 l 222 324 b 435 661 222 575 319 661 b 603 511 549 661 596 597 b 606 406 606 474 606 443 l 606 0 l 725 0 l 725 414 b 722 540 725 474 725 503 z "},"o":{"ha":814,"x_min":0,"x_max":0,"o":"m 407 756 b 42 368 157 756 42 576 b 407 -19 42 161 157 -19 b 772 368 657 -19 772 161 b 407 756 772 576 657 756 z m 407 72 b 172 368 258 72 172 196 b 407 664 172 542 258 664 b 642 368 556 664 642 542 b 407 72 642 196 556 72 z "},"ó":{"ha":814,"x_min":0,"x_max":0,"o":"m 438 806 l 556 958 l 444 958 l 360 806 z m 407 756 b 42 368 157 756 42 576 b 407 -19 42 161 157 -19 b 772 368 657 -19 772 161 b 407 756 772 576 657 756 z m 407 72 b 172 368 258 72 172 196 b 407 664 172 542 258 664 b 642 368 556 664 642 542 b 407 72 642 196 556 72 z "},"ô":{"ha":814,"x_min":0,"x_max":0,"o":"m 361 806 l 407 893 l 453 806 l 542 806 l 449 958 l 367 958 l 274 806 z m 407 756 b 42 368 157 756 42 576 b 407 -19 42 161 157 -19 b 772 368 657 -19 772 161 b 407 756 772 576 657 756 z m 407 72 b 172 368 258 72 172 196 b 407 664 172 542 258 664 b 642 368 556 664 642 542 b 407 72 642 196 556 72 z "},"ö":{"ha":814,"x_min":0,"x_max":0,"o":"m 306 810 b 369 874 340 810 369 839 b 306 938 369 908 340 938 b 242 874 271 938 242 908 b 306 810 242 839 271 810 z m 508 810 b 572 874 543 810 572 839 b 508 938 572 908 543 938 b 444 874 474 938 444 908 b 508 810 444 839 474 810 z m 407 756 b 42 368 157 756 42 576 b 407 -19 42 161 157 -19 b 772 368 657 -19 772 161 b 407 756 772 576 657 756 z m 407 72 b 172 368 258 72 172 196 b 407 664 172 542 258 664 b 642 368 556 664 642 542 b 407 72 642 196 556 72 z "},"ò":{"ha":814,"x_min":0,"x_max":0,"o":"m 374 806 l 451 806 l 367 958 l 256 958 z m 407 756 b 42 368 157 756 42 576 b 407 -19 42 161 157 -19 b 772 368 657 -19 772 161 b 407 756 772 576 657 756 z m 407 72 b 172 368 258 72 172 196 b 407 664 172 542 258 664 b 642 368 556 664 642 542 b 407 72 642 196 556 72 z "},"ő":{"ha":814,"x_min":0,"x_max":0,"o":"m 360 806 l 478 958 l 367 958 l 282 806 z m 451 806 l 529 806 l 647 958 l 536 958 z m 407 756 b 42 368 157 756 42 576 b 407 -19 42 161 157 -19 b 772 368 657 -19 772 161 b 407 756 772 576 657 756 z m 407 72 b 172 368 258 72 172 196 b 407 664 172 542 258 664 b 642 368 556 664 642 542 b 407 72 642 196 556 72 z "},"ō":{"ha":814,"x_min":0,"x_max":0,"o":"m 574 839 l 574 911 l 240 911 l 240 839 z m 407 756 b 42 368 157 756 42 576 b 407 -19 42 161 157 -19 b 772 368 657 -19 772 161 b 407 756 772 576 657 756 z m 407 72 b 172 368 258 72 172 196 b 407 664 172 542 258 664 b 642 368 556 664 642 542 b 407 72 642 196 556 72 z "},"ø":{"ha":861,"x_min":0,"x_max":0,"o":"m 825 706 l 768 763 l 671 665 b 419 756 613 721 529 756 b 54 368 169 756 54 576 b 125 119 54 275 78 188 l 36 31 l 93 -26 l 179 60 b 419 -19 238 11 318 -19 b 785 368 669 -19 785 161 b 722 603 785 456 764 538 z m 185 368 b 419 664 185 542 271 664 b 590 585 492 664 550 635 l 215 210 b 185 368 194 254 185 308 z m 654 368 b 419 72 654 196 568 72 b 260 140 353 72 299 97 l 631 511 b 654 368 646 469 654 421 z "},"õ":{"ha":814,"x_min":0,"x_max":0,"o":"m 335 861 b 396 846 347 861 363 857 b 482 828 433 833 456 828 b 554 926 526 828 554 849 l 501 926 b 479 899 501 906 493 899 b 418 914 467 899 451 903 b 332 932 381 926 358 932 b 260 833 288 932 260 911 l 313 833 b 335 861 313 854 321 861 z m 407 756 b 42 368 157 756 42 576 b 407 -19 42 161 157 -19 b 772 368 657 -19 772 161 b 407 756 772 576 657 756 z m 407 72 b 172 368 258 72 172 196 b 407 664 172 542 258 664 b 642 368 556 664 642 542 b 407 72 642 196 556 72 z "},"œ":{"ha":1363,"x_min":0,"x_max":0,"o":"m 1307 389 b 992 756 1307 604 1194 756 b 708 576 871 756 769 703 b 407 756 650 697 550 756 b 42 368 157 756 42 576 b 407 -19 42 161 157 -19 b 703 156 547 -19 644 38 b 976 -19 761 31 861 -19 b 1297 238 1128 -19 1268 60 l 1172 238 b 982 72 1156 132 1078 72 b 774 332 874 72 785 149 l 1304 332 b 1307 389 1307 358 1307 378 z m 407 72 b 172 368 258 72 172 196 b 407 664 172 542 258 664 b 642 368 556 664 642 542 b 407 72 642 196 556 72 z m 774 424 b 989 664 789 581 871 664 b 1186 424 1110 664 1174 576 z "},"p":{"ha":849,"x_min":0,"x_max":0,"o":"m 472 756 b 278 697 397 756 319 732 l 222 618 l 222 736 l 103 736 l 103 -272 l 222 -272 l 222 101 l 271 29 b 447 -19 308 -1 386 -19 b 807 379 638 -19 807 107 b 472 756 807 594 688 756 z m 447 72 b 222 335 342 72 222 144 l 222 375 b 454 664 222 586 332 664 b 676 365 601 664 676 532 b 447 72 676 172 576 72 z "},"þ":{"ha":849,"x_min":0,"x_max":0,"o":"m 472 756 b 278 697 397 756 319 732 l 222 618 l 222 1021 l 103 1021 l 103 -272 l 222 -272 l 222 101 l 271 29 b 447 -19 308 -1 386 -19 b 807 379 638 -19 807 107 b 472 756 807 594 688 756 z m 447 72 b 222 335 342 72 222 144 l 222 375 b 454 664 222 586 332 664 b 676 365 601 664 676 532 b 447 72 676 172 576 72 z "},"q":{"ha":854,"x_min":0,"x_max":0,"o":"m 746 736 l 626 736 l 626 635 l 578 707 b 401 756 540 738 463 756 b 42 357 211 756 42 629 b 376 -19 42 142 161 -19 b 571 39 451 -19 529 4 l 626 118 l 626 -272 l 746 -272 z m 394 72 b 172 371 247 72 172 204 b 401 664 172 564 272 664 b 626 401 507 664 626 592 l 626 361 b 394 72 626 150 517 72 z "},"r":{"ha":458,"x_min":0,"x_max":0,"o":"m 392 753 b 289 719 357 753 319 740 l 222 621 l 222 736 l 103 736 l 103 0 l 222 0 l 222 419 b 442 653 222 588 317 661 l 442 743 b 392 753 428 750 411 753 z "},"ŕ":{"ha":458,"x_min":0,"x_max":0,"o":"m 286 806 l 404 958 l 293 958 l 208 806 z m 392 753 b 289 719 357 753 319 740 l 222 621 l 222 736 l 103 736 l 103 0 l 222 0 l 222 419 b 442 653 222 588 317 661 l 442 743 b 392 753 428 750 411 753 z "},"ř":{"ha":458,"x_min":0,"x_max":0,"o":"m 215 806 l 297 806 l 390 958 l 303 958 l 257 871 l 211 958 l 122 958 z m 392 753 b 289 719 357 753 319 740 l 222 621 l 222 736 l 103 736 l 103 0 l 222 0 l 222 419 b 442 653 222 588 317 661 l 442 743 b 392 753 428 750 411 753 z "},"ŗ":{"ha":458,"x_min":0,"x_max":0,"o":"m 392 753 b 289 719 357 753 319 740 l 222 621 l 222 736 l 103 736 l 103 0 l 222 0 l 222 419 b 442 653 222 588 317 661 l 442 743 b 392 753 428 750 411 753 z m 119 -71 l 47 -271 l 132 -271 l 215 -87 l 215 -71 z "},"s":{"ha":638,"x_min":0,"x_max":0,"o":"m 317 756 b 63 540 165 756 63 675 b 300 321 63 411 168 357 b 474 179 424 288 474 250 b 331 72 474 108 410 72 b 158 217 246 72 178 110 l 33 217 b 322 -19 56 50 171 -19 b 596 189 478 -19 596 50 b 346 425 596 314 515 381 b 185 554 246 451 185 481 b 307 664 185 618 224 664 b 463 526 393 664 446 613 l 588 526 b 317 756 572 661 482 756 z "},"ś":{"ha":638,"x_min":0,"x_max":0,"o":"m 471 958 l 360 958 l 275 806 l 353 806 z m 317 756 b 63 540 165 756 63 675 b 300 321 63 411 168 357 b 474 179 424 288 474 250 b 331 72 474 108 410 72 b 158 217 246 72 178 110 l 33 217 b 322 -19 56 50 171 -19 b 596 189 478 -19 596 50 b 346 425 596 314 515 381 b 185 554 246 451 185 481 b 307 664 185 618 224 664 b 463 526 393 664 446 613 l 588 526 b 317 756 572 661 482 756 z "},"š":{"ha":638,"x_min":0,"x_max":0,"o":"m 364 806 l 457 958 l 369 958 l 324 871 l 278 958 l 189 958 l 282 806 z m 346 425 b 185 554 246 451 185 481 b 307 664 185 618 224 664 b 463 526 393 664 446 613 l 588 526 b 317 756 572 661 482 756 b 63 540 165 756 63 675 b 300 321 63 411 168 357 b 474 179 424 288 474 250 b 331 72 474 108 410 72 b 158 217 246 72 178 110 l 33 217 b 322 -19 56 50 171 -19 b 596 189 478 -19 596 50 b 346 425 596 314 515 381 z "},"ş":{"ha":638,"x_min":0,"x_max":0,"o":"m 596 189 b 346 425 596 314 515 381 b 185 554 246 451 185 481 b 307 664 185 618 224 664 b 463 526 393 664 446 613 l 588 526 b 317 756 572 661 482 756 b 63 540 165 756 63 675 b 300 321 63 411 168 357 b 474 179 424 288 474 250 b 331 72 474 108 410 72 b 158 217 246 72 178 110 l 33 217 b 292 -18 54 61 156 -10 l 243 -108 b 376 -172 339 -101 376 -125 b 290 -233 376 -210 347 -233 b 217 -218 261 -233 238 -229 l 217 -279 b 286 -292 236 -287 261 -292 b 457 -171 388 -292 457 -249 b 344 -56 457 -106 418 -65 l 365 -18 b 596 189 499 -6 596 63 z "},"ș":{"ha":638,"x_min":0,"x_max":0,"o":"m 317 756 b 63 540 165 756 63 675 b 300 321 63 411 168 357 b 474 179 424 288 474 250 b 331 72 474 108 410 72 b 158 217 246 72 178 110 l 33 217 b 322 -19 56 50 171 -19 b 596 189 478 -19 596 50 b 346 425 596 314 515 381 b 185 554 246 451 185 481 b 307 664 185 618 224 664 b 463 526 393 664 446 613 l 588 526 b 317 756 572 661 482 756 z m 386 -71 l 290 -71 l 218 -271 l 303 -271 l 386 -87 z "},"ß":{"ha":844,"x_min":0,"x_max":0,"o":"m 425 1047 b 106 756 256 1047 117 954 b 103 667 104 731 103 694 l 103 0 l 222 0 l 222 678 b 225 753 222 707 224 733 b 419 953 235 886 315 953 b 597 803 539 953 597 894 b 572 714 597 771 592 747 b 447 553 485 671 447 618 b 567 357 447 474 481 432 b 656 207 642 292 656 253 b 522 86 656 135 614 86 b 392 104 492 86 453 89 l 392 8 b 528 -6 446 -3 482 -6 b 789 197 671 -6 789 69 b 671 419 789 297 751 354 b 581 553 607 472 581 503 b 688 661 581 590 617 624 b 731 804 719 713 731 764 b 425 1047 731 950 614 1047 z "},"t":{"ha":435,"x_min":0,"x_max":0,"o":"m 246 639 l 383 639 l 383 731 l 246 731 l 246 901 l 126 901 l 126 731 l 28 731 l 28 639 l 126 639 l 126 210 b 128 118 126 168 126 138 b 274 -11 135 26 182 -11 b 375 -4 307 -11 340 -10 l 375 83 b 247 158 282 72 253 88 b 246 215 246 178 246 190 z "},"ŧ":{"ha":435,"x_min":0,"x_max":0,"o":"m 246 639 l 383 639 l 383 731 l 246 731 l 246 901 l 126 901 l 126 731 l 28 731 l 28 639 l 126 639 l 126 483 l 28 483 l 28 411 l 126 411 l 126 210 b 128 118 126 168 126 138 b 274 -11 135 26 182 -11 b 375 -4 307 -11 340 -10 l 375 83 b 247 158 282 72 253 88 b 246 215 246 178 246 190 l 246 411 l 361 411 l 361 483 l 246 483 z "},"ť":{"ha":421,"x_min":0,"x_max":0,"o":"m 468 1021 l 372 1021 l 300 821 l 385 821 l 468 1004 z m 246 731 l 246 901 l 126 901 l 126 731 l 28 731 l 28 639 l 126 639 l 126 210 b 128 118 126 168 126 138 b 274 -11 135 26 182 -11 b 375 -4 307 -11 340 -10 l 375 83 b 247 158 282 72 253 88 b 246 215 246 178 246 190 l 246 639 l 383 639 l 383 731 z "},"ţ":{"ha":435,"x_min":0,"x_max":0,"o":"m 246 639 l 383 639 l 383 731 l 246 731 l 246 901 l 126 901 l 126 731 l 28 731 l 28 639 l 126 639 l 126 210 b 128 118 126 168 126 138 b 208 -3 133 51 160 14 l 151 -108 b 285 -172 247 -101 285 -125 b 199 -233 285 -210 256 -233 b 125 -218 169 -233 146 -229 l 125 -279 b 194 -292 144 -287 169 -292 b 365 -171 296 -292 365 -249 b 253 -56 365 -106 326 -65 l 278 -11 b 375 -4 310 -11 342 -10 l 375 83 b 247 158 282 72 253 88 b 246 215 246 178 246 190 z "},"ț":{"ha":435,"x_min":0,"x_max":0,"o":"m 246 639 l 383 639 l 383 731 l 246 731 l 246 901 l 126 901 l 126 731 l 28 731 l 28 639 l 126 639 l 126 210 b 128 118 126 168 126 138 b 274 -11 135 26 182 -11 b 375 -4 307 -11 340 -10 l 375 83 b 247 158 282 72 253 88 b 246 215 246 178 246 190 z m 199 -71 l 126 -271 l 211 -271 l 294 -87 l 294 -71 z "},"u":{"ha":822,"x_min":0,"x_max":0,"o":"m 714 736 l 594 736 l 594 413 b 388 75 594 161 503 75 b 217 215 288 75 228 132 b 211 317 213 253 211 293 l 211 736 l 92 736 l 92 294 b 99 168 92 235 93 206 b 357 -19 115 67 204 -19 b 549 39 432 -19 486 -7 l 594 125 l 594 0 l 714 0 z "},"ú":{"ha":822,"x_min":0,"x_max":0,"o":"m 433 806 l 551 958 l 440 958 l 356 806 z m 714 736 l 594 736 l 594 413 b 388 75 594 161 503 75 b 217 215 288 75 228 132 b 211 317 213 253 211 293 l 211 736 l 92 736 l 92 294 b 99 168 92 235 93 206 b 357 -19 115 67 204 -19 b 549 39 432 -19 486 -7 l 594 125 l 594 0 l 714 0 z "},"û":{"ha":822,"x_min":0,"x_max":0,"o":"m 357 806 l 403 893 l 449 806 l 538 806 l 444 958 l 363 958 l 269 806 z m 714 736 l 594 736 l 594 413 b 388 75 594 161 503 75 b 217 215 288 75 228 132 b 211 317 213 253 211 293 l 211 736 l 92 736 l 92 294 b 99 168 92 235 93 206 b 357 -19 115 67 204 -19 b 549 39 432 -19 486 -7 l 594 125 l 594 0 l 714 0 z "},"ü":{"ha":822,"x_min":0,"x_max":0,"o":"m 301 810 b 365 874 336 810 365 839 b 301 938 365 908 336 938 b 238 874 267 938 238 908 b 301 810 238 839 267 810 z m 504 810 b 568 874 539 810 568 839 b 504 938 568 908 539 938 b 440 874 469 938 440 908 b 504 810 440 839 469 810 z m 714 736 l 594 736 l 594 413 b 388 75 594 161 503 75 b 217 215 288 75 228 132 b 211 317 213 253 211 293 l 211 736 l 92 736 l 92 294 b 99 168 92 235 93 206 b 357 -19 115 67 204 -19 b 549 39 432 -19 486 -7 l 594 125 l 594 0 l 714 0 z "},"ù":{"ha":822,"x_min":0,"x_max":0,"o":"m 369 806 l 447 806 l 363 958 l 251 958 z m 714 736 l 594 736 l 594 413 b 388 75 594 161 503 75 b 217 215 288 75 228 132 b 211 317 213 253 211 293 l 211 736 l 92 736 l 92 294 b 99 168 92 235 93 206 b 357 -19 115 67 204 -19 b 549 39 432 -19 486 -7 l 594 125 l 594 0 l 714 0 z "},"ű":{"ha":822,"x_min":0,"x_max":0,"o":"m 356 806 l 474 958 l 363 958 l 278 806 z m 447 806 l 525 806 l 643 958 l 532 958 z m 714 736 l 594 736 l 594 413 b 388 75 594 161 503 75 b 217 215 288 75 228 132 b 211 317 213 253 211 293 l 211 736 l 92 736 l 92 294 b 99 168 92 235 93 206 b 357 -19 115 67 204 -19 b 549 39 432 -19 486 -7 l 594 125 l 594 0 l 714 0 z "},"ū":{"ha":822,"x_min":0,"x_max":0,"o":"m 569 839 l 569 911 l 236 911 l 236 839 z m 714 736 l 594 736 l 594 413 b 388 75 594 161 503 75 b 217 215 288 75 228 132 b 211 317 213 253 211 293 l 211 736 l 92 736 l 92 294 b 99 168 92 235 93 206 b 357 -19 115 67 204 -19 b 549 39 432 -19 486 -7 l 594 125 l 594 0 l 714 0 z "},"ų":{"ha":822,"x_min":0,"x_max":0,"o":"m 714 0 l 714 736 l 594 736 l 594 413 b 388 75 594 161 503 75 b 217 215 288 75 228 132 b 211 317 213 253 211 293 l 211 736 l 92 736 l 92 294 b 99 168 92 235 93 206 b 357 -19 115 67 204 -19 b 549 39 432 -19 486 -7 l 594 125 l 594 15 b 438 -192 513 -15 438 -86 b 567 -310 438 -279 490 -310 b 690 -275 613 -310 656 -299 l 690 -207 b 613 -235 665 -226 640 -235 b 551 -165 572 -235 551 -217 b 682 0 551 -78 611 -12 z "},"ů":{"ha":822,"x_min":0,"x_max":0,"o":"m 403 785 b 529 901 476 785 529 833 b 403 1018 529 969 476 1018 b 276 901 329 1018 276 969 b 403 785 276 833 329 785 z m 403 968 b 460 901 436 968 460 943 b 403 835 460 860 436 835 b 346 901 369 835 346 860 b 403 968 346 943 369 968 z m 714 736 l 594 736 l 594 413 b 388 75 594 161 503 75 b 217 215 288 75 228 132 b 211 317 213 253 211 293 l 211 736 l 92 736 l 92 294 b 99 168 92 235 93 206 b 357 -19 115 67 204 -19 b 549 39 432 -19 486 -7 l 594 125 l 594 0 l 714 0 z "},"v":{"ha":714,"x_min":0,"x_max":0,"o":"m 706 736 l 579 736 l 358 88 l 133 736 l 1 736 l 281 0 l 426 0 z "},"w":{"ha":1090,"x_min":0,"x_max":0,"o":"m 1082 736 l 954 736 l 783 118 l 619 736 l 471 736 l 310 114 l 139 736 l 1 736 l 236 0 l 378 0 l 542 619 l 706 0 l 847 0 z "},"ẃ":{"ha":1090,"x_min":0,"x_max":0,"o":"m 575 806 l 693 958 l 582 958 l 497 806 z m 1082 736 l 954 736 l 783 118 l 619 736 l 471 736 l 310 114 l 139 736 l 1 736 l 236 0 l 378 0 l 542 619 l 706 0 l 847 0 z "},"ŵ":{"ha":1090,"x_min":0,"x_max":0,"o":"m 499 806 l 544 893 l 590 806 l 679 806 l 586 958 l 504 958 l 411 806 z m 1082 736 l 954 736 l 783 118 l 619 736 l 471 736 l 310 114 l 139 736 l 1 736 l 236 0 l 378 0 l 542 619 l 706 0 l 847 0 z "},"ẅ":{"ha":1090,"x_min":0,"x_max":0,"o":"m 443 810 b 507 874 478 810 507 839 b 443 938 507 908 478 938 b 379 874 408 938 379 908 b 443 810 379 839 408 810 z m 646 810 b 710 874 681 810 710 839 b 646 938 710 908 681 938 b 582 874 611 938 582 908 b 646 810 582 839 611 810 z m 1082 736 l 954 736 l 783 118 l 619 736 l 471 736 l 310 114 l 139 736 l 1 736 l 236 0 l 378 0 l 542 619 l 706 0 l 847 0 z "},"ẁ":{"ha":1090,"x_min":0,"x_max":0,"o":"m 511 806 l 589 806 l 504 958 l 393 958 z m 1082 736 l 954 736 l 783 118 l 619 736 l 471 736 l 310 114 l 139 736 l 1 736 l 236 0 l 378 0 l 542 619 l 706 0 l 847 0 z "},"x":{"ha":669,"x_min":0,"x_max":0,"o":"m 392 375 l 650 736 l 513 736 l 328 451 l 143 736 l 1 736 l 256 372 l -8 0 l 129 0 l 321 296 l 514 0 l 653 0 z "},"y":{"ha":713,"x_min":0,"x_max":0,"o":"m 704 736 l 574 736 l 356 89 l 136 736 l 1 736 l 294 -37 l 285 -64 b 125 -193 247 -161 199 -193 b 82 -192 113 -193 100 -193 l 82 -289 b 143 -292 100 -292 117 -292 b 401 -62 263 -292 342 -218 z "},"ý":{"ha":713,"x_min":0,"x_max":0,"o":"m 388 806 l 506 958 l 394 958 l 310 806 z m 704 736 l 574 736 l 356 89 l 136 736 l 1 736 l 294 -37 l 285 -64 b 125 -193 247 -161 199 -193 b 82 -192 113 -193 100 -193 l 82 -289 b 143 -292 100 -292 117 -292 b 401 -62 263 -292 342 -218 z "},"ŷ":{"ha":713,"x_min":0,"x_max":0,"o":"m 311 806 l 357 893 l 403 806 l 492 806 l 399 958 l 317 958 l 224 806 z m 704 736 l 574 736 l 356 89 l 136 736 l 1 736 l 294 -37 l 285 -64 b 125 -193 247 -161 199 -193 b 82 -192 113 -193 100 -193 l 82 -289 b 143 -292 100 -292 117 -292 b 401 -62 263 -292 342 -218 z "},"ÿ":{"ha":713,"x_min":0,"x_max":0,"o":"m 256 810 b 319 874 290 810 319 839 b 256 938 319 908 290 938 b 192 874 221 938 192 908 b 256 810 192 839 221 810 z m 458 810 b 522 874 493 810 522 839 b 458 938 522 908 493 938 b 394 874 424 938 394 908 b 458 810 394 839 424 810 z m 704 736 l 574 736 l 356 89 l 136 736 l 1 736 l 294 -37 l 285 -64 b 125 -193 247 -161 199 -193 b 82 -192 113 -193 100 -193 l 82 -289 b 143 -292 100 -292 117 -292 b 401 -62 263 -292 342 -218 z "},"ỳ":{"ha":713,"x_min":0,"x_max":0,"o":"m 324 806 l 401 806 l 317 958 l 206 958 z m 704 736 l 574 736 l 356 89 l 136 736 l 1 736 l 294 -37 l 285 -64 b 125 -193 247 -161 199 -193 b 82 -192 113 -193 100 -193 l 82 -289 b 143 -292 100 -292 117 -292 b 401 -62 263 -292 342 -218 z "},"z":{"ha":642,"x_min":0,"x_max":0,"o":"m 601 94 l 169 94 l 594 635 l 594 731 l 58 731 l 58 636 l 456 636 l 28 92 l 28 0 l 601 0 z "},"ź":{"ha":642,"x_min":0,"x_max":0,"o":"m 350 806 l 468 958 l 357 958 l 272 806 z m 601 94 l 169 94 l 594 635 l 594 731 l 58 731 l 58 636 l 456 636 l 28 92 l 28 0 l 601 0 z "},"ž":{"ha":642,"x_min":0,"x_max":0,"o":"m 279 806 l 361 806 l 454 958 l 367 958 l 321 871 l 275 958 l 186 958 z m 601 94 l 169 94 l 594 635 l 594 731 l 58 731 l 58 636 l 456 636 l 28 92 l 28 0 l 601 0 z "},"ż":{"ha":642,"x_min":0,"x_max":0,"o":"m 319 825 b 396 901 363 825 396 858 b 319 978 396 944 363 978 b 243 901 276 978 243 944 b 319 825 243 858 276 825 z m 601 94 l 169 94 l 594 635 l 594 731 l 58 731 l 58 636 l 456 636 l 28 92 l 28 0 l 601 0 z "},"ﬁ":{"ha":725,"x_min":0,"x_max":0,"o":"m 617 731 l 228 731 l 228 761 b 232 836 228 782 229 817 b 497 942 244 924 313 957 l 497 1040 b 413 1047 472 1044 443 1047 b 113 839 219 1047 128 974 b 108 750 110 814 108 778 l 108 731 l 29 731 l 29 639 l 108 639 l 108 0 l 228 0 l 228 639 l 497 639 l 497 0 l 617 0 z "},"ﬂ":{"ha":707,"x_min":0,"x_max":0,"o":"m 582 142 b 581 211 581 165 581 189 l 581 1021 b 371 1047 525 1039 457 1047 b 99 839 206 1047 114 974 b 94 750 96 814 94 778 l 94 731 l 29 731 l 29 639 l 94 639 l 94 0 l 214 0 l 214 639 l 365 639 l 365 731 l 214 731 l 214 761 b 218 836 214 782 215 817 b 365 956 228 904 271 956 b 461 947 401 956 433 953 l 461 207 b 463 110 461 167 461 135 b 588 -6 467 17 518 -6 b 672 0 615 -6 646 -4 l 672 88 b 582 142 607 79 585 94 z "},"⁄":{"ha":326,"x_min":0,"x_max":0,"o":"m -87 0 l 535 958 l 414 958 l -208 0 z "},"*":{"ha":778,"x_min":0,"x_max":0,"o":"m 418 411 l 432 660 l 346 660 l 360 411 l 144 496 l 118 414 l 339 357 l 182 165 l 251 114 l 389 326 l 526 114 l 596 165 l 439 357 l 660 414 l 633 496 z "},"\\":{"ha":421,"x_min":0,"x_max":0,"o":"m 428 -42 l 79 1000 l -7 1000 l 342 -42 z "},"•":{"ha":506,"x_min":0,"x_max":0,"o":"m 253 568 b 108 424 171 568 108 506 b 253 279 108 342 171 279 b 397 424 335 279 397 342 b 253 568 397 506 335 568 z "},":":{"ha":306,"x_min":0,"x_max":0,"o":"m 140 756 b 51 667 89 756 51 718 b 140 578 51 615 89 578 b 229 667 192 578 229 615 b 140 756 229 718 192 756 z m 140 158 b 51 69 89 158 51 121 b 140 -19 51 18 89 -19 b 229 69 192 -19 229 18 b 140 158 229 121 192 158 z "},",":{"ha":306,"x_min":0,"x_max":0,"o":"m 194 125 l 194 139 l 65 139 l -43 -167 l 69 -167 z "},"…":{"ha":861,"x_min":0,"x_max":0,"o":"m 140 158 b 51 69 89 158 51 121 b 140 -19 51 18 89 -19 b 229 69 192 -19 229 18 b 140 158 229 121 192 158 z m 418 158 b 329 69 367 158 329 121 b 418 -19 329 18 367 -19 b 507 69 469 -19 507 18 b 418 158 507 121 469 158 z m 696 158 b 607 69 644 158 607 121 b 696 -19 607 18 644 -19 b 785 69 747 -19 785 18 b 696 158 785 121 747 158 z "},"!":{"ha":336,"x_min":0,"x_max":0,"o":"m 222 250 l 239 958 l 97 958 l 114 250 z m 168 158 b 79 69 117 158 79 121 b 168 -19 79 18 117 -19 b 257 69 219 -19 257 18 b 168 158 257 121 219 158 z "},"¡":{"ha":336,"x_min":0,"x_max":0,"o":"m 168 578 b 257 667 219 578 257 615 b 168 756 257 718 219 756 b 79 667 117 756 79 718 b 168 578 79 615 117 578 z m 114 486 l 97 -222 l 239 -222 l 222 486 z "},"#":{"ha":806,"x_min":0,"x_max":0,"o":"m 567 576 l 708 576 l 708 654 l 583 654 l 649 958 l 568 958 l 503 654 l 376 654 l 442 958 l 361 958 l 296 654 l 139 654 l 139 576 l 279 576 l 239 382 l 97 382 l 97 304 l 222 304 l 157 0 l 238 0 l 303 304 l 429 304 l 364 0 l 444 0 l 510 304 l 667 304 l 667 382 l 526 382 z m 488 576 l 446 382 l 319 382 l 361 576 z "},".":{"ha":306,"x_min":0,"x_max":0,"o":"m 140 158 b 51 69 89 158 51 121 b 140 -19 51 18 89 -19 b 229 69 192 -19 229 18 b 140 158 229 121 192 158 z "},"·":{"ha":281,"x_min":0,"x_max":0,"o":"m 140 519 b 44 424 86 519 44 478 b 140 328 44 369 86 328 b 236 424 194 328 236 369 b 140 519 236 478 194 519 z "},"?":{"ha":693,"x_min":0,"x_max":0,"o":"m 361 978 b 49 686 179 978 54 864 l 174 686 b 357 883 182 815 253 883 b 517 724 457 883 517 819 b 386 472 517 640 485 585 b 275 250 308 383 283 332 l 394 250 b 504 440 399 318 419 356 b 650 724 603 539 650 626 b 361 978 650 867 547 978 z m 335 158 b 246 69 283 158 246 121 b 335 -19 246 18 283 -19 b 424 69 386 -19 424 18 b 335 158 424 121 386 158 z "},"¿":{"ha":682,"x_min":0,"x_max":0,"o":"m 407 578 b 496 667 458 578 496 615 b 407 756 496 718 458 756 b 318 667 356 756 318 718 b 407 578 318 615 356 578 z m 381 -242 b 693 50 563 -242 688 -128 l 568 50 b 385 -147 560 -79 489 -147 b 225 13 285 -147 225 -83 b 356 264 225 96 257 151 b 467 486 433 353 458 404 l 347 486 b 238 296 343 418 322 381 b 92 13 139 197 92 110 b 381 -242 92 -131 194 -242 z "},"\"":{"ha":471,"x_min":0,"x_max":0,"o":"m 231 674 l 244 1021 l 119 1021 l 133 674 z m 425 674 l 439 1021 l 314 1021 l 328 674 z "},"'":{"ha":244,"x_min":0,"x_max":0,"o":"m 171 674 l 185 1021 l 60 1021 l 74 674 z "},";":{"ha":306,"x_min":0,"x_max":0,"o":"m 140 756 b 51 667 89 756 51 718 b 140 578 51 615 89 578 b 229 667 192 578 229 615 b 140 756 229 718 192 756 z m 196 136 l 196 153 l 65 153 l -43 -167 l 71 -167 z "},"/":{"ha":421,"x_min":0,"x_max":0,"o":"m 79 -42 l 428 1000 l 342 1000 l -7 -42 z "},"_":{"ha":694,"x_min":0,"x_max":0,"o":"m 625 -119 l 625 -42 l 69 -42 l 69 -119 z "},"{":{"ha":421,"x_min":0,"x_max":0,"o":"m 375 1006 l 375 1083 l 360 1083 b 171 936 240 1083 171 1050 b 188 785 171 907 174 883 b 203 632 199 708 203 671 b 89 525 203 571 172 533 l 89 447 b 203 340 172 439 203 401 b 188 188 203 301 199 264 b 171 36 174 89 171 65 b 360 -111 171 -78 240 -111 l 375 -111 l 375 -33 l 358 -33 b 251 35 276 -33 251 -8 b 267 174 251 67 254 85 b 285 344 281 271 285 301 b 164 488 285 425 239 478 b 285 628 240 497 285 547 b 267 799 285 671 281 701 b 251 938 254 888 251 906 b 358 1006 251 981 276 1006 z "},"}":{"ha":421,"x_min":0,"x_max":0,"o":"m 332 525 b 218 632 249 533 218 571 b 233 785 218 671 222 708 b 250 936 247 883 250 907 b 61 1083 250 1050 181 1083 l 46 1083 l 46 1006 l 63 1006 b 169 938 144 1006 169 981 b 154 799 169 906 167 888 b 136 628 140 701 136 671 b 257 485 136 547 182 494 b 136 344 181 475 136 425 b 154 174 136 301 140 271 b 169 35 167 85 169 67 b 63 -33 169 -8 144 -33 l 46 -33 l 46 -111 l 61 -111 b 250 36 181 -111 250 -78 b 233 188 250 65 247 89 b 218 340 222 264 218 301 b 332 447 218 401 249 439 z "},"[":{"ha":426,"x_min":0,"x_max":0,"o":"m 363 1083 l 136 1083 l 136 -111 l 363 -111 l 363 -33 l 217 -33 l 217 1006 l 363 1006 z "},"]":{"ha":410,"x_min":0,"x_max":0,"o":"m 274 -111 l 274 1083 l 47 1083 l 47 1006 l 193 1006 l 193 -33 l 47 -33 l 47 -111 z "},"(":{"ha":438,"x_min":0,"x_max":0,"o":"m 307 1083 b 139 486 203 926 139 706 b 307 -111 139 267 203 46 l 388 -111 b 225 486 285 63 225 278 b 388 1083 225 694 285 910 z "},")":{"ha":438,"x_min":0,"x_max":0,"o":"m 42 1083 b 204 486 144 910 204 694 b 42 -111 204 278 144 63 l 122 -111 b 290 486 226 46 290 267 b 122 1083 290 706 226 926 z "},"—":{"ha":1389,"x_min":0,"x_max":0,"o":"m 1292 367 l 1292 444 l 97 444 l 97 367 z "},"–":{"ha":694,"x_min":0,"x_max":0,"o":"m 597 367 l 597 444 l 97 444 l 97 367 z "},"-":{"ha":381,"x_min":0,"x_max":0,"o":"m 336 354 l 336 432 l 44 432 l 44 354 z "},"«":{"ha":774,"x_min":0,"x_max":0,"o":"m 458 575 l 357 575 l 167 344 l 357 114 l 458 114 l 268 344 z m 694 575 l 593 575 l 403 344 l 593 114 l 694 114 l 504 344 z "},"»":{"ha":774,"x_min":0,"x_max":0,"o":"m 371 344 l 181 575 l 79 575 l 269 344 l 79 114 l 181 114 z m 607 344 l 417 575 l 315 575 l 506 344 l 315 114 l 417 114 z "},"‹":{"ha":538,"x_min":0,"x_max":0,"o":"m 458 575 l 357 575 l 167 344 l 357 114 l 458 114 l 268 344 z "},"›":{"ha":538,"x_min":0,"x_max":0,"o":"m 371 344 l 181 575 l 79 575 l 269 344 l 79 114 l 181 114 z "},"„":{"ha":542,"x_min":0,"x_max":0,"o":"m 194 125 l 194 139 l 65 139 l -43 -167 l 69 -167 z m 431 125 l 431 139 l 301 139 l 193 -167 l 306 -167 z "},"“":{"ha":579,"x_min":0,"x_max":0,"o":"m 75 688 l 75 674 l 204 674 l 313 1021 l 206 1021 z m 311 688 l 311 674 l 440 674 l 549 1021 l 442 1021 z "},"”":{"ha":579,"x_min":0,"x_max":0,"o":"m 268 1007 l 268 1021 l 139 1021 l 31 674 l 138 674 z m 504 1007 l 504 1021 l 375 1021 l 267 674 l 374 674 z "},"‘":{"ha":343,"x_min":0,"x_max":0,"o":"m 75 688 l 75 674 l 204 674 l 313 1021 l 206 1021 z "},"’":{"ha":343,"x_min":0,"x_max":0,"o":"m 268 1007 l 268 1021 l 139 1021 l 31 674 l 138 674 z "},"‚":{"ha":306,"x_min":0,"x_max":0,"o":"m 194 125 l 194 139 l 65 139 l -43 -167 l 69 -167 z "}," ":{"ha":300,"x_min":0,"x_max":0,"o":""},"¢":{"ha":778,"x_min":0,"x_max":0,"o":"m 443 661 b 600 489 524 650 576 593 l 725 489 b 443 754 704 642 601 744 l 443 861 l 363 861 l 363 751 b 68 367 201 726 68 590 b 363 -18 68 114 193 -4 l 363 -125 l 443 -125 l 443 -17 b 718 235 583 -3 686 81 l 593 235 b 443 75 572 143 519 89 z m 199 375 b 363 658 199 544 269 636 l 363 76 b 199 375 271 96 199 188 z "},"¤":{"ha":806,"x_min":0,"x_max":0,"o":"m 653 418 b 606 564 653 472 636 524 l 690 649 l 633 706 l 549 621 b 403 668 508 651 457 668 b 257 622 349 668 299 651 l 174 706 l 117 649 l 200 565 b 153 418 171 524 153 474 b 200 272 153 364 169 313 l 117 190 l 174 133 l 257 215 b 403 168 297 185 347 168 b 550 215 458 168 508 186 l 633 132 l 690 189 l 607 272 b 653 418 636 314 653 364 z m 403 249 b 239 418 310 249 239 319 b 403 588 239 517 310 588 b 567 418 496 588 567 517 b 403 249 567 319 496 249 z "},"$":{"ha":806,"x_min":0,"x_max":0,"o":"m 731 251 b 451 550 731 394 657 485 l 451 881 b 593 707 540 867 583 801 l 721 707 b 451 976 704 847 617 963 l 451 1083 l 371 1083 l 371 975 b 108 710 218 960 108 867 b 371 433 108 550 210 478 l 371 78 b 201 258 272 93 214 160 l 74 258 b 371 -18 81 97 194 -7 l 371 -125 l 451 -125 l 451 -17 b 731 251 608 -1 731 96 z m 236 728 b 371 881 236 815 288 867 l 371 563 b 236 728 278 592 236 635 z m 451 418 b 603 238 565 381 603 318 b 451 76 603 138 542 88 z "},"€":{"ha":806,"x_min":0,"x_max":0,"o":"m 646 361 l 658 439 l 268 439 b 267 481 267 453 267 467 l 267 514 l 669 514 l 685 592 l 274 592 b 550 883 300 807 411 883 b 721 813 617 883 679 860 l 779 892 b 553 978 731 949 653 978 b 140 592 335 978 176 857 l 81 592 l 67 514 l 135 514 b 133 475 133 501 133 489 l 133 439 l 56 439 l 42 361 l 139 361 b 539 -19 168 75 313 -19 b 750 32 614 -19 682 -7 l 750 131 b 546 75 689 92 625 75 b 274 361 393 75 299 158 z "},"£":{"ha":806,"x_min":0,"x_max":0,"o":"m 719 97 l 267 97 b 372 299 338 150 372 204 b 344 440 372 344 364 390 l 613 440 l 613 518 l 313 518 b 261 715 275 601 261 640 b 422 883 261 797 311 883 b 589 706 519 883 572 826 l 717 706 b 425 978 706 863 611 978 b 128 692 260 978 128 863 b 171 518 128 628 144 578 l 107 518 l 107 440 l 208 440 b 246 278 235 382 246 339 b 94 86 246 197 208 114 l 94 0 l 719 0 z "},"¥":{"ha":806,"x_min":0,"x_max":0,"o":"m 518 496 l 774 958 l 633 958 l 408 499 l 179 958 l 32 958 l 288 496 l 118 496 l 118 418 l 331 418 l 343 396 l 343 329 l 118 329 l 118 251 l 343 251 l 343 0 l 463 0 l 463 251 l 688 251 l 688 329 l 463 329 l 463 396 l 475 418 l 688 418 l 688 496 z "},"≈":{"ha":806,"x_min":0,"x_max":0,"o":"m 258 608 b 92 507 185 608 138 578 l 153 456 b 251 524 181 503 210 524 b 383 475 292 524 329 504 b 544 418 456 436 490 418 b 713 525 619 418 667 454 l 651 571 b 553 503 624 524 596 503 b 421 551 513 503 475 522 b 258 608 349 590 314 608 z m 258 386 b 92 285 185 386 138 356 l 153 233 b 251 301 181 281 210 301 b 383 253 292 301 329 282 b 544 196 456 214 490 196 b 713 303 619 196 667 232 l 651 349 b 553 281 624 301 596 281 b 421 329 513 281 475 300 b 258 386 349 368 314 386 z "},"~":{"ha":806,"x_min":0,"x_max":0,"o":"m 619 494 b 551 389 619 429 604 389 b 421 438 513 389 472 410 b 260 494 349 476 314 494 b 107 310 157 494 107 429 l 185 310 b 253 415 185 375 200 415 b 383 367 292 415 332 394 b 544 310 456 328 490 310 b 697 494 647 310 697 375 z "},"÷":{"ha":806,"x_min":0,"x_max":0,"o":"m 406 740 b 328 663 361 740 328 707 b 406 585 328 618 361 585 b 483 663 450 585 483 618 b 406 740 483 707 450 740 z m 694 404 l 694 482 l 111 482 l 111 404 z m 406 296 b 328 218 361 296 328 263 b 406 140 328 174 361 140 b 483 218 450 140 483 174 b 406 296 483 263 450 296 z "},"∅":{"ha":1164,"x_min":0,"x_max":0,"o":"m 1101 956 l 1044 1013 l 933 901 b 582 1033 840 983 718 1033 b 50 493 283 1033 50 792 b 175 143 50 360 97 238 l 63 31 l 119 -26 l 231 85 b 582 -47 324 3 446 -47 b 1114 493 881 -47 1114 194 b 989 843 1114 626 1067 749 z m 136 493 b 582 953 136 746 331 953 b 874 842 694 953 796 911 l 235 203 b 136 493 172 282 136 383 z m 582 33 b 290 144 469 33 368 75 l 929 783 b 1028 493 992 704 1028 603 b 582 33 1028 239 833 33 z "},"=":{"ha":806,"x_min":0,"x_max":0,"o":"m 694 538 l 694 615 l 111 615 l 111 538 z m 694 260 l 694 338 l 111 338 l 111 260 z "},">":{"ha":806,"x_min":0,"x_max":0,"o":"m 651 415 l 94 694 l 94 597 l 569 367 l 94 136 l 94 42 l 651 321 z "},"≥":{"ha":806,"x_min":0,"x_max":0,"o":"m 681 475 l 97 713 l 97 615 l 594 429 l 97 238 l 97 143 l 681 381 z m 97 78 l 97 0 l 681 0 l 681 78 z "},"∞":{"ha":1369,"x_min":0,"x_max":0,"o":"m 990 756 b 688 532 844 756 757 683 b 379 756 622 683 513 756 b 42 368 143 756 42 576 b 379 -19 42 160 143 -19 b 682 204 525 -19 613 53 b 990 -19 747 53 857 -19 b 1328 368 1226 -19 1328 160 b 990 756 1328 576 1226 756 z m 379 72 b 172 368 258 72 172 194 b 379 664 172 542 258 664 b 608 368 485 664 568 582 b 379 72 582 154 485 72 z m 990 72 b 761 368 885 72 801 154 b 990 664 788 582 885 664 b 1197 368 1111 664 1197 542 b 990 72 1197 194 1111 72 z "},"∫":{"ha":806,"x_min":0,"x_max":0,"o":"m 471 1047 b 285 790 365 1047 285 956 b 361 403 285 701 306 603 b 433 28 425 172 433 107 b 329 -144 433 -85 389 -144 b 246 -117 296 -144 275 -139 l 225 -192 b 333 -222 261 -217 290 -222 b 519 35 439 -222 519 -131 b 443 422 519 124 499 222 b 371 797 379 653 371 718 b 475 969 371 910 415 969 b 558 942 508 969 529 964 l 579 1017 b 471 1047 543 1042 514 1047 z "},"<":{"ha":806,"x_min":0,"x_max":0,"o":"m 700 600 l 700 694 l 143 415 l 143 321 l 700 42 l 700 139 l 225 369 z "},"≤":{"ha":806,"x_min":0,"x_max":0,"o":"m 708 618 l 708 713 l 125 475 l 125 381 l 708 143 l 708 240 l 211 426 z m 125 78 l 125 0 l 708 0 l 708 78 z "},"¬":{"ha":806,"x_min":0,"x_max":0,"o":"m 651 292 l 651 533 l 139 533 l 139 456 l 571 456 l 571 292 z "},"−":{"ha":806,"x_min":0,"x_max":0,"o":"m 694 404 l 694 482 l 111 482 l 111 404 z "},"×":{"ha":806,"x_min":0,"x_max":0,"o":"m 460 436 l 651 628 l 594 685 l 403 493 l 211 685 l 154 628 l 346 436 l 154 244 l 211 188 l 403 379 l 594 188 l 651 244 z "},"≠":{"ha":806,"x_min":0,"x_max":0,"o":"m 508 538 l 694 538 l 694 615 l 553 615 l 624 736 l 532 736 l 461 615 l 111 615 l 111 538 l 417 538 l 299 338 l 111 338 l 111 260 l 254 260 l 183 139 l 275 139 l 346 260 l 694 260 l 694 338 l 390 338 z "},"∂":{"ha":806,"x_min":0,"x_max":0,"o":"m 363 1053 b 97 958 253 1053 176 1025 l 150 885 b 357 961 213 938 264 961 b 601 588 531 961 588 788 b 400 683 563 649 489 683 b 61 328 169 683 61 514 b 379 -19 61 99 211 -19 b 735 489 583 -19 735 114 b 363 1053 735 775 656 1053 z m 390 72 b 192 332 281 72 192 156 b 404 592 192 488 261 592 b 607 467 494 592 563 554 b 390 72 603 225 540 72 z "},"%":{"ha":1028,"x_min":0,"x_max":0,"o":"m 263 972 b 57 751 138 972 57 888 b 263 531 57 617 138 531 b 468 751 388 531 468 617 b 263 972 468 888 388 972 z m 264 0 l 886 958 l 765 958 l 143 0 z m 263 889 b 351 751 315 889 351 842 b 263 614 351 663 315 614 b 174 751 210 614 174 663 b 263 889 174 842 210 889 z m 765 422 b 560 201 640 422 560 338 b 765 -19 560 67 640 -19 b 971 201 890 -19 971 67 b 765 422 971 338 890 422 z m 765 339 b 854 201 818 339 854 292 b 765 64 854 113 818 64 b 676 201 713 64 676 113 b 765 339 676 292 713 339 z "},"‰":{"ha":1496,"x_min":0,"x_max":0,"o":"m 468 751 b 263 972 468 888 388 972 b 57 751 138 972 57 888 b 263 531 57 617 138 531 b 468 751 388 531 468 617 z m 886 958 l 765 958 l 143 0 l 264 0 z m 174 751 b 263 889 174 842 210 889 b 351 751 315 889 351 842 b 263 614 351 663 315 614 b 174 751 210 614 174 663 z m 765 422 b 560 201 640 422 560 338 b 765 -19 560 67 640 -19 b 971 201 890 -19 971 67 b 765 422 971 338 890 422 z m 1233 422 b 1028 201 1108 422 1028 338 b 1233 -19 1028 67 1108 -19 b 1439 201 1358 -19 1439 67 b 1233 422 1439 338 1358 422 z m 765 64 b 676 201 713 64 676 113 b 765 339 676 292 713 339 b 854 201 818 339 854 292 b 765 64 854 113 818 64 z m 1233 64 b 1144 201 1181 64 1144 113 b 1233 339 1144 292 1181 339 b 1322 201 1286 339 1322 292 b 1233 64 1322 113 1286 64 z "},"+":{"ha":806,"x_min":0,"x_max":0,"o":"m 694 399 l 694 476 l 443 476 l 443 763 l 363 763 l 363 476 l 111 476 l 111 399 l 363 399 l 363 118 l 443 118 l 443 399 z "},"±":{"ha":806,"x_min":0,"x_max":0,"o":"m 443 482 l 443 726 l 363 726 l 363 482 l 111 482 l 111 404 l 363 404 l 363 154 l 443 154 l 443 404 l 694 404 l 694 482 z m 694 0 l 694 78 l 111 78 l 111 0 z "},"∏":{"ha":806,"x_min":0,"x_max":0,"o":"m 763 861 l 763 958 l 43 958 l 43 861 l 128 861 l 128 -153 l 247 -153 l 247 861 l 558 861 l 558 -153 l 678 -153 l 678 861 z "},"√":{"ha":806,"x_min":0,"x_max":0,"o":"m 763 1083 l 676 1083 l 414 -114 l 253 431 l 96 431 l 96 353 l 189 353 l 364 -222 l 465 -222 z "},"∑":{"ha":806,"x_min":0,"x_max":0,"o":"m 744 -56 l 201 -56 l 586 417 l 246 861 l 736 861 l 736 958 l 107 958 l 107 864 l 447 418 l 65 -58 l 65 -153 l 744 -153 z "},"◊":{"ha":711,"x_min":0,"x_max":0,"o":"m 633 479 l 401 958 l 310 958 l 78 479 l 310 0 l 401 0 z m 542 479 l 356 82 l 169 479 l 356 876 z "},"&":{"ha":908,"x_min":0,"x_max":0,"o":"m 864 535 l 731 535 l 731 690 l 611 690 l 611 535 l 528 535 b 442 536 497 535 467 535 b 261 710 339 542 261 579 b 463 883 261 817 336 883 b 633 868 531 883 576 879 l 633 964 b 467 978 581 974 535 978 b 128 703 268 978 128 867 b 308 489 128 590 203 514 b 89 240 172 460 89 356 b 468 -19 89 38 244 -19 b 731 10 561 -19 651 -8 l 731 438 l 864 438 z m 222 258 b 443 435 222 347 283 421 b 528 438 471 438 497 438 l 611 438 l 611 88 b 471 75 564 78 526 75 b 222 258 297 75 222 125 z "},"^":{"ha":806,"x_min":0,"x_max":0,"o":"m 600 299 l 694 299 l 450 856 l 356 856 l 111 299 l 208 299 l 404 778 z "},"@":{"ha":1183,"x_min":0,"x_max":0,"o":"m 881 646 l 768 646 l 744 561 l 732 628 b 610 671 706 657 660 671 b 310 317 433 671 310 499 b 506 93 310 147 417 93 b 644 147 556 93 600 110 l 674 204 b 813 104 685 133 740 104 b 1097 460 946 104 1097 208 b 651 922 1097 736 914 922 b 75 338 367 922 75 704 b 550 -144 75 13 304 -144 b 936 -21 661 -144 801 -112 l 903 47 b 554 -64 801 -28 667 -64 b 161 339 339 -64 161 69 b 647 842 161 660 414 842 b 1011 457 844 842 1011 713 b 840 185 1011 271 924 185 b 788 235 794 185 788 210 b 793 279 788 246 789 261 z m 692 349 b 535 185 672 265 611 185 b 440 325 482 185 440 222 b 618 579 440 453 506 579 b 704 403 685 579 735 536 z "},"|":{"ha":347,"x_min":0,"x_max":0,"o":"m 214 -278 l 214 1111 l 133 1111 l 133 -278 z "},"¦":{"ha":347,"x_min":0,"x_max":0,"o":"m 214 486 l 214 958 l 133 958 l 133 486 z m 214 -222 l 214 250 l 133 250 l 133 -222 z "},"©":{"ha":1164,"x_min":0,"x_max":0,"o":"m 582 1033 b 50 493 283 1033 50 799 b 582 -47 50 188 283 -47 b 1114 493 881 -47 1114 188 b 582 1033 1114 799 881 1033 z m 582 953 b 1028 493 833 953 1028 753 b 582 33 1028 232 833 33 b 136 493 331 33 136 232 b 582 953 136 753 331 953 z m 590 814 b 290 490 411 814 290 690 b 578 172 290 299 408 172 b 864 396 744 172 832 265 l 736 396 b 590 267 725 325 671 267 b 424 494 489 267 424 356 b 590 719 424 631 482 719 b 738 590 682 719 724 663 l 865 590 b 590 814 839 722 742 814 z "},"†":{"ha":764,"x_min":0,"x_max":0,"o":"m 686 519 l 686 628 l 436 617 l 453 958 l 311 958 l 328 617 l 78 628 l 78 519 l 328 531 l 311 -222 l 453 -222 l 436 531 z "},"‡":{"ha":764,"x_min":0,"x_max":0,"o":"m 436 531 l 686 519 l 686 628 l 436 617 l 453 958 l 311 958 l 328 617 l 78 628 l 78 519 l 328 531 l 328 206 l 78 217 l 78 108 l 328 119 l 311 -222 l 453 -222 l 436 119 l 686 108 l 686 217 l 436 206 z "},"°":{"ha":414,"x_min":0,"x_max":0,"o":"m 207 978 b 39 813 108 978 39 911 b 207 647 39 714 108 647 b 375 813 306 647 375 714 b 207 978 375 911 306 978 z m 207 900 b 289 813 254 900 289 864 b 207 725 289 761 254 725 b 125 813 160 725 125 761 b 207 900 125 864 160 900 z "},"¶":{"ha":786,"x_min":0,"x_max":0,"o":"m 678 958 l 357 958 b 279 957 332 958 303 958 b 61 701 138 949 61 833 b 279 446 61 569 138 454 b 357 444 303 444 332 444 l 389 444 l 389 -153 l 469 -153 l 469 881 l 597 881 l 597 -153 l 678 -153 z "},"®":{"ha":706,"x_min":0,"x_max":0,"o":"m 353 1061 b 61 769 182 1061 61 940 b 353 478 61 599 182 478 b 644 769 524 478 644 599 b 353 1061 644 940 524 1061 z m 353 542 b 128 769 221 542 128 636 b 353 997 128 903 221 997 b 578 769 485 997 578 903 b 353 542 578 636 485 542 z m 417 768 b 476 838 450 779 476 801 b 383 914 476 886 438 908 b 346 915 371 915 360 915 l 249 915 l 249 632 l 318 632 l 318 726 l 350 726 b 390 694 371 726 388 719 b 400 632 393 668 396 649 l 479 632 b 461 707 472 647 465 669 b 417 768 458 738 447 763 z m 372 786 b 346 785 364 785 358 785 l 318 785 l 318 858 l 346 858 b 372 857 358 858 364 858 b 400 822 389 853 400 844 b 372 786 400 801 392 790 z "},"§":{"ha":778,"x_min":0,"x_max":0,"o":"m 738 342 b 450 606 738 475 649 550 b 263 771 321 642 263 693 b 385 886 263 844 315 886 b 531 747 463 886 514 833 l 656 747 b 385 978 640 888 549 978 b 135 758 242 978 135 897 b 190 617 135 700 156 654 b 46 408 104 585 46 514 b 321 147 46 271 164 186 b 529 -28 485 107 529 51 b 390 -150 529 -108 469 -150 b 215 0 306 -150 242 -107 l 90 0 b 382 -242 110 -167 225 -242 b 657 -18 525 -242 657 -168 b 600 140 657 49 636 100 b 738 342 681 178 738 251 z m 506 207 b 367 253 465 225 419 240 b 174 414 250 281 174 339 b 286 547 174 501 222 542 b 404 500 324 528 364 513 b 610 328 547 456 610 413 b 506 207 610 274 571 221 z "},"™":{"ha":749,"x_min":0,"x_max":0,"o":"m 303 917 l 28 917 l 28 860 l 131 860 l 131 633 l 200 633 l 200 860 l 303 860 z m 661 915 l 560 915 l 500 700 l 440 915 l 336 915 l 336 633 l 406 633 l 404 829 l 463 639 l 535 639 l 594 831 l 592 633 l 661 633 z "},"´":{"ha":417,"x_min":0,"x_max":0,"o":"m 239 806 l 357 958 l 246 958 l 161 806 z "},"˘":{"ha":417,"x_min":0,"x_max":0,"o":"m 276 958 b 208 863 275 886 249 863 b 140 958 168 863 142 886 l 67 958 b 208 786 67 843 108 786 b 350 958 307 786 350 843 z "},"ˇ":{"ha":417,"x_min":0,"x_max":0,"o":"m 343 958 l 256 958 l 210 871 l 164 958 l 75 958 l 168 806 l 250 806 z "},"¸":{"ha":417,"x_min":0,"x_max":0,"o":"m 257 13 l 183 13 l 118 -108 b 251 -172 214 -101 251 -125 b 165 -233 251 -210 222 -233 b 92 -218 136 -233 113 -229 l 92 -279 b 161 -292 111 -287 136 -292 b 332 -171 263 -292 332 -249 b 219 -56 332 -106 293 -65 z "},"ˆ":{"ha":417,"x_min":0,"x_max":0,"o":"m 254 806 l 343 806 l 250 958 l 168 958 l 75 806 l 163 806 l 208 893 z "},"¨":{"ha":417,"x_min":0,"x_max":0,"o":"m 107 938 b 43 874 72 938 43 908 b 107 810 43 839 72 810 b 171 874 142 810 171 839 b 107 938 171 908 142 938 z m 310 938 b 246 874 275 938 246 908 b 310 810 246 839 275 810 b 374 874 344 810 374 839 b 310 938 374 908 344 938 z "},"˙":{"ha":417,"x_min":0,"x_max":0,"o":"m 208 978 b 132 901 165 978 132 944 b 208 825 132 858 165 825 b 285 901 251 825 285 858 b 208 978 285 944 251 978 z "},"`":{"ha":417,"x_min":0,"x_max":0,"o":"m 253 806 l 168 958 l 57 958 l 175 806 z "},"˝":{"ha":417,"x_min":0,"x_max":0,"o":"m 161 806 l 279 958 l 168 958 l 83 806 z m 331 806 l 449 958 l 338 958 l 253 806 z "},"¯":{"ha":417,"x_min":0,"x_max":0,"o":"m 375 839 l 375 911 l 42 911 l 42 839 z "},"˛":{"ha":417,"x_min":0,"x_max":0,"o":"m 208 15 b 51 -192 126 -15 51 -86 b 181 -310 51 -279 104 -310 b 304 -275 226 -310 269 -299 l 304 -207 b 226 -235 279 -226 254 -235 b 165 -165 186 -235 165 -217 b 296 0 165 -78 225 -12 z "},"˚":{"ha":417,"x_min":0,"x_max":0,"o":"m 208 1018 b 82 901 135 1018 82 969 b 208 785 82 833 135 785 b 335 901 282 785 335 833 b 208 1018 335 969 282 1018 z m 208 968 b 265 901 242 968 265 943 b 208 835 265 860 242 835 b 151 901 175 835 151 860 b 208 968 151 943 175 968 z "},"˜":{"ha":417,"x_min":0,"x_max":0,"o":"m 133 932 b 61 833 89 932 61 911 l 114 833 b 136 861 114 854 122 861 b 197 846 149 861 164 857 b 283 828 235 833 257 828 b 356 926 328 828 356 849 l 303 926 b 281 899 303 906 294 899 b 219 914 268 899 253 903 b 133 932 182 926 160 932 z "},"̦":{"ha":0,"x_min":0,"x_max":0,"o":"m 269 -87 l 269 -71 l 174 -71 l 101 -271 l 186 -271 z "}}}
